<?xml version="1.0" encoding="UTF-8" standalone="no"?>
<svg
   id="OBJECTS"
   viewBox="0 0 333.37043 400.41672"
   version="1.1"
   sodipodi:docname="ec6fa2a85fa8c1df838aec9bd324eaa4.svg"
   width="333.37042"
   height="400.41672"
   xmlns:inkscape="http://www.inkscape.org/namespaces/inkscape"
   xmlns:sodipodi="http://sodipodi.sourceforge.net/DTD/sodipodi-0.dtd"
   xmlns:xlink="http://www.w3.org/1999/xlink"
   xmlns="http://www.w3.org/2000/svg"
   xmlns:svg="http://www.w3.org/2000/svg">
  <sodipodi:namedview
     id="namedview223"
     pagecolor="#ffffff"
     bordercolor="#666666"
     borderopacity="1.0"
     inkscape:pageshadow="2"
     inkscape:pageopacity="0.0"
     inkscape:pagecheckerboard="0" />
  <defs
     id="defs24">
    <style
       id="style2">.cls-1{fill:#e4ebf7;}.cls-2,.cls-21{fill:#fff;}.cls-2{opacity:0.62;}.cls-3{fill:url(#linear-gradient);}.cls-4{fill:#fafcff;stroke:#0c6bf4;stroke-miterlimit:10;stroke-width:1.18px;}.cls-32,.cls-5{fill:#3150bc;}.cls-5{opacity:0.47;}.cls-6{fill:#bac1cc;}.cls-7{fill:#edf1f9;}.cls-8{fill:#f4d242;}.cls-9{fill:#feb19e;}.cls-10{fill:#593131;}.cls-11{fill:#754343;}.cls-12{fill:url(#linear-gradient-2);}.cls-13{fill:#9eb2ef;}.cls-14{fill:#23406d;}.cls-15{fill:#a8afba;}.cls-16{fill:url(#linear-gradient-3);}.cls-17{fill:#a1a7af;}.cls-18{fill:url(#linear-gradient-4);}.cls-19{fill:#f49d8c;}.cls-20{fill:url(#linear-gradient-5);}.cls-22{fill:#383838;}.cls-23{fill:#838689;}.cls-24{fill:url(#linear-gradient-6);}.cls-25{fill:#efa245;}.cls-26{fill:#1b3151;}.cls-27{fill:url(#linear-gradient-7);}.cls-28{fill:url(#linear-gradient-8);}.cls-29{fill:#38659b;}.cls-30{fill:url(#linear-gradient-9);}.cls-31{fill:url(#linear-gradient-10);}.cls-33{fill:#a9d0ff;}.cls-34{fill:url(#linear-gradient-11);}.cls-35{fill:#ff856a;}.cls-36{fill:#e1e7f4;}.cls-37{fill:#f8fbff;}.cls-38{fill:url(#linear-gradient-12);}</style>
    <linearGradient
       id="linear-gradient"
       x1="93.07"
       y1="181.03999"
       x2="95.82"
       y2="154.66"
       gradientUnits="userSpaceOnUse">
      <stop
         offset="0"
         stop-color="#3855e1"
         id="stop4" />
      <stop
         offset="1"
         stop-color="#5c7ef7"
         id="stop6" />
    </linearGradient>
    <linearGradient
       id="linear-gradient-2"
       x1="114.15"
       y1="224.60001"
       x2="95.25"
       y2="202.55"
       xlink:href="#linear-gradient"
       gradientTransform="translate(-5.3266116,0.40670878)" />
    <linearGradient
       id="linear-gradient-3"
       x1="241.16"
       y1="180.52"
       x2="238.39999"
       y2="156.5"
       xlink:href="#linear-gradient"
       gradientTransform="translate(-5.3266116,0.40670878)" />
    <linearGradient
       id="linear-gradient-4"
       x1="220.38"
       y1="223.92999"
       x2="237.57001"
       y2="204.05"
       xlink:href="#linear-gradient"
       gradientTransform="translate(-5.3266116,0.40670878)" />
    <linearGradient
       id="linear-gradient-5"
       x1="106.17"
       y1="123.7"
       x2="121.92"
       y2="112.67"
       xlink:href="#linear-gradient"
       gradientTransform="translate(-5.3266116,0.40670878)" />
    <linearGradient
       id="linear-gradient-6"
       x1="227.28999"
       y1="121.96"
       x2="211.73"
       y2="112.51"
       xlink:href="#linear-gradient"
       gradientTransform="translate(-5.3266116,0.40670878)" />
    <linearGradient
       id="linear-gradient-7"
       x1="149.92999"
       y1="394.34"
       x2="142.99001"
       y2="378.39001"
       xlink:href="#linear-gradient"
       gradientTransform="translate(-5.3266116,0.40670878)" />
    <linearGradient
       id="linear-gradient-8"
       x1="184.3"
       y1="382.72"
       x2="208.53"
       y2="382.72"
       xlink:href="#linear-gradient"
       gradientTransform="translate(-5.3266116,0.40670878)" />
    <linearGradient
       id="linear-gradient-9"
       x1="131.53"
       y1="187.08"
       x2="119.42"
       y2="181.91"
       xlink:href="#linear-gradient"
       gradientTransform="translate(-5.3266116,0.40670878)" />
    <linearGradient
       id="linear-gradient-10"
       x1="172.64999"
       y1="224.38"
       x2="164.78"
       y2="133.41"
       xlink:href="#linear-gradient"
       gradientTransform="translate(-5.3266116,0.40670878)" />
    <linearGradient
       id="linear-gradient-11"
       x1="155.36"
       y1="119.74"
       x2="149.64999"
       y2="96.900002"
       gradientUnits="userSpaceOnUse"
       gradientTransform="translate(-5.3266116,0.40670878)">
      <stop
         offset="0"
         stop-color="#1f3a65"
         id="stop18" />
      <stop
         offset="1"
         stop-color="#294a7a"
         id="stop20" />
    </linearGradient>
    <linearGradient
       id="linear-gradient-12"
       x1="179"
       y1="223.83"
       x2="171.12"
       y2="132.86"
       xlink:href="#linear-gradient"
       gradientTransform="translate(-5.3266116,0.40670878)" />
    <linearGradient
       inkscape:collect="always"
       xlink:href="#linear-gradient"
       id="linearGradient225"
       gradientUnits="userSpaceOnUse"
       x1="93.07"
       y1="181.03999"
       x2="95.82"
       y2="154.66"
       gradientTransform="translate(-5.3266116,0.40670878)" />
  </defs>
  <title
     id="title26">3327599</title>
  <path
     class="cls-1"
     d="m 333.18339,189.32671 c -0.12,1.84 -0.27,3.69 -0.46,5.5 -0.08,0.92 -0.19,1.83 -0.3,2.75 v 0 c -1.77,15.17 -5.73,29.47 -12.11,42 v 0 c -0.53,1.05 -1.09,2.08 -1.67,3.1 a 83.93,83.93 0 0 1 -17,21.65 c -0.61,0.56 -1.23,1.1 -1.85,1.62 a 76.92,76.92 0 0 1 -20.61,12.46 c -0.91,0.38 -1.82,0.74 -2.75,1.09 v 0 c -17.83,6.62 -40.2,8 -67.63,2 h -0.13 c -0.95,-0.2 -1.89,-0.39 -2.82,-0.54 -25.43,-4.54 -44.35,5.6 -64.43,15.9 l -2.19,1.11 c -24.21,12.34 -50.510002,24.17 -92.230002,10.45 -64.33,-21.13 -51.3299996,-93.42 -27.28,-145.01 0.38,-0.83 0.77,-1.64 1.16,-2.46 a 234.63,234.63 0 0 1 16.17,-28.54 115.71,115.71 0 0 0 10.62,-20.26 c 0.38,-0.91 0.74,-1.82 1.1,-2.74 14.37,-36.770001 13.13,-76.500001 38.62,-92.000001 0.65,-0.41 1.32,-0.8 2,-1.16 a 45.24,45.24 0 0 1 12.400002,-4.35 45.33,45.33 0 0 1 32.47,5 c 0.86,0.5 1.71,1 2.54,1.55 19.53,12.52 32.91,38.17 45.41,58.51 0.45,0.76 0.91,1.49 1.36,2.22 9.95,15.94 19.43,28.000001 31.15,26.900001 q 3.56,-0.35 7.18,-0.51 l 2.5,-0.08 c 20.85,-0.52 42.81,3.6 61.51,12.3 q 1.17,0.53 2.3,1.1 c 17.07,8.41 31.18,20.74 38.84,37 0.34,0.71 0.66,1.43 1,2.15 a 67.54,67.54 0 0 1 5.13,31.29 z"
     id="path28" />
  <path
     class="cls-1"
     d="m 273.74339,81.636709 a 53.83,53.83 0 0 1 -7.49,3 c -0.87,0.27 -1.74,0.52 -2.6,0.73 -43.21,11.04 -78.89,-42.96 -81.88,-68.47 -3,-25.8500002 30.35,-18.0700002 62.37,-3 l 3,1.43 3.1,1.54 c 34.43,17.36 71.12,41.54 23.5,64.77 z"
     id="path30" />
  <path
     class="cls-2"
     d="m 208.78339,281.55671 h -0.11 c -0.95,-0.2 -1.89,-0.39 -2.82,-0.54 -6.59,-15.9 -16.17,-31.92 -29.24,-37.72 -8.91,-4 -18.68,-2.73 -29,3.67 -30.37,18.77 -53.850002,29.34 -69.650002,19.89 -15.1,-9 -21,-36.44 -18.16,-83.83 1.82,-30 -2.24,-53.79 -12.1,-70.87 0.38,-0.91 0.74,-1.82 1.1,-2.74 10.79,17.61 15.26,42.33 13.35,73.75 -2.81,46.41 2.75,73.12 17,81.65 15.64,9.37 41.550002,-4 67.190002,-19.87 11.06,-6.84 21.57,-8.13 31.23,-3.83 14.31,6.34 24.44,23.67 31.21,40.44 z"
     id="path32" />
  <path
     class="cls-2"
     d="m 141.46339,296.89671 -2.19,1.11 c -1.54,-5.2 -4.1,-10.22 -8.3,-13.55 -6.08,-4.82 -14.73,-5.42 -25.71,-1.8 -24.300002,8 -42.840002,7.29 -55.120002,-2.23 -13.74,-10.64 -19.6,-32.37 -17.41,-64.55 1.59,-23.47 -4.68,-40.47 -13.01,-52.47 0.38,-0.83 0.77,-1.64 1.16,-2.46 9,12.38 15.9,30.15 14.21,55.05 -2.14,31.41 3.43,52.41 16.51,62.57 11.61,9 29.43,9.64 52.920002,1.85 11.79,-3.9 21.18,-3.15 27.93,2.2 4.54,3.61 7.33,8.86 9.01,14.28 z"
     id="path34" />
  <path
     class="cls-2"
     d="m 251.39339,195.98671 c -4,30.22 0.56,53.73 13.53,69.89 a 55.66,55.66 0 0 0 14.26,12.53 c -0.91,0.38 -1.82,0.74 -2.75,1.09 v 0 a 58.23,58.23 0 0 1 -13.32,-12.09 c -13.42,-16.68 -18.15,-40.8 -14.06,-71.71 5.3,-40.13 22,-64.13 36.88,-77.94 q 1.17,0.53 2.3,1.1 c -14.72,13.38 -31.56,37.04 -36.84,77.13 z"
     id="path36" />
  <path
     class="cls-2"
     d="m 285.67339,206.25671 c -3.41,22.94 -0.57,40.22 8.49,51.34 a 32.9,32.9 0 0 0 7.44,6.73 c -0.61,0.56 -1.23,1.1 -1.85,1.62 a 35.43,35.43 0 0 1 -7.42,-6.86 c -9.5,-11.66 -12.52,-29.55 -9,-53.18 3.59,-24 18.65,-41.23 43.73,-50.1 0.34,0.71 0.66,1.43 1,2.15 -24.63,8.57 -38.88,24.8 -42.39,48.3 z"
     id="path38" />
  <path
     class="cls-2"
     d="m 332.67339,194.82671 c -0.08,0.92 -0.19,1.83 -0.3,2.75 v 0 a 24.17,24.17 0 0 0 -11.08,10.62 c -4.86,9.36 -3.53,21.57 -1,31.35 0,0 0,0 0,0 -0.53,1.05 -1.09,2.08 -1.67,3.1 -3,-10.5 -5.08,-24.61 0.59,-35.55 a 26.86,26.86 0 0 1 13.46,-12.27 z"
     id="path40" />
  <path
     class="cls-2"
     d="m 224.42339,105.40671 a 113.59,113.59 0 0 1 -5.68,18.28 c -9.58,23.23 -25.45,35.43 -46,35.43 -0.82,0 -1.62,0 -2.45,0 -28,-1.29 -44,-44.86 -59.55,-87.000001 -7.59,-20.71 -14.970002,-40.71 -23.350002,-54.71 0.65,-0.41 1.32,-0.8 2,-1.16 8.55,14.31 15.950002,34.38 23.580002,55.06 15.27,41.420001 31.07,84.240001 57.46,85.450001 33.44,1.54 46.5,-30 51.48,-51.21 z"
     id="path42" />
  <path
     class="cls-2"
     d="m 183.59339,79.126709 a 37.2,37.2 0 0 1 -6.62,0.6 31.8,31.8 0 0 1 -16,-4.17 c -14.44,-8.25 -23.4,-28 -26.73,-58.71 0.86,0.5 1.71,1 2.54,1.55 3.42,28.91 11.89,47.41 25.4,55.11 a 30.6,30.6 0 0 0 20,3.4 c 0.49,0.76 0.96,1.5 1.41,2.22 z"
     id="path44" />
  <path
     class="cls-2"
     d="m 266.26339,84.636709 c -0.87,0.27 -1.74,0.52 -2.6,0.73 -6.24,-6.52 -13,-19.63 -14.61,-46 a 92,92 0 0 0 -4.9,-25.4 l 3,1.43 a 96.68,96.68 0 0 1 4.28,23.83 c 1.63,27.05 8.69,39.6 14.83,45.41 z"
     id="path46" />
  <ellipse
     class="cls-1"
     cx="164.56339"
     cy="390.73672"
     rx="96.139999"
     ry="9.6800003"
     id="ellipse48" />
  <path
     class="cls-3"
     d="m 49.673388,160.80671 c 0,0 1.68,1.15 4.69,2.89 9.86,5.74 34,18 60.510002,17.84 0.84,0 1.68,0 2.52,-0.06 0.84,-0.06 1.89,-0.08 2.84,-0.15 2.54,-0.19 5.08,-0.5 7.64,-0.93 l 3.32,-25.47 -8.79,0.43 -2.41,0.12 -1.43,0.07 -23.300002,1.15 -35.19,-11.2 -5,-1.61 c 0,0 -6.3,4.4 -5.4,16.92 z"
     id="path50"
     style="fill:url(#linearGradient225)" />
  <path
     class="cls-4"
     d="m 49.673388,160.80671 c 0,0 1.68,1.15 4.69,2.89 0.35,-6.91 3.32,-13.74 5.71,-18.22 l -5,-1.61 c 0,0 -6.3,4.42 -5.4,16.94 z"
     id="path52" />
  <path
     class="cls-5"
     d="m 117.41339,181.48671 c 0.95,0 1.89,-0.08 2.84,-0.15 2.54,-0.19 5.08,-0.5 7.64,-0.93 l 3.32,-25.47 -8.79,0.43 -2.41,0.12 a 83.63,83.63 0 0 0 -1.67,8.23 88.45,88.45 0 0 0 -0.93,17.77 z"
     id="path54" />
  <rect
     class="cls-6"
     x="19.219362"
     y="144.85654"
     width="31.889999"
     height="42.59"
     transform="rotate(-9.09)"
     id="rect56" />
  <rect
     class="cls-7"
     x="45.043388"
     y="137.20671"
     width="31.889999"
     height="42.59"
     id="rect58" />
  <circle
     class="cls-8"
     cx="52.393387"
     cy="146.19672"
     r="3.1700001"
     id="circle60" />
  <path
     class="cls-6"
     d="m 68.023388,156.26671 h -17.87 a 0.94,0.94 0 0 1 -0.94,-0.94 v 0 a 0.94,0.94 0 0 1 0.94,-0.94 h 17.87 a 0.94,0.94 0 0 1 0.94,0.94 v 0 a 0.94,0.94 0 0 1 -0.94,0.94 z"
     id="path62" />
  <path
     class="cls-6"
     d="m 72.193388,161.18671 h -22 a 0.94,0.94 0 0 1 -0.94,-0.94 v 0 a 0.94,0.94 0 0 1 0.94,-0.94 h 22 a 0.94,0.94 0 0 1 0.94,0.94 v 0 a 0.94,0.94 0 0 1 -0.94,0.94 z"
     id="path64" />
  <path
     class="cls-6"
     d="m 72.193388,165.75671 h -22 a 0.94,0.94 0 0 1 -0.94,-0.94 v 0 a 0.94,0.94 0 0 1 0.94,-0.94 h 22 a 0.94,0.94 0 0 1 0.94,0.94 v 0 a 0.94,0.94 0 0 1 -0.94,0.94 z"
     id="path66" />
  <path
     class="cls-6"
     d="m 72.193388,170.04671 h -22 a 0.94,0.94 0 0 1 -0.94,-0.94 v 0 a 0.94,0.94 0 0 1 0.94,-0.94 h 22 a 0.94,0.94 0 0 1 0.94,0.94 v 0 a 0.94,0.94 0 0 1 -0.94,0.94 z"
     id="path68" />
  <path
     class="cls-9"
     d="m 44.003388,153.25671 c 0,0 6.84,-0.74 7,1.13 0.16,1.87 -4.13,2.36 -4.13,2.36 0,0 6.3,0.34 6.5,1.75 0.2,1.41 -6.5,2.68 -6.5,2.68 0,0 5.37,0 5.49,1.33 0.12,1.33 -5.39,2.3 -5.39,2.3 0,0 4.23,0.21 4.33,1.39 0.1,1.18 -6.89,3.35 -8.27,2 -1.38,-1.35 0.49,-3.94 -1.08,-5.46 a 4.08,4.08 0 0 1 -0.69,-5.07 c 0.92,-1.11 -2.04,-4.37 2.74,-4.41 z"
     id="path70" />
  <path
     class="cls-10"
     d="m 82.673388,275.29671 -18.41,-6.28 2.15,-6.31 a 4.64,4.64 0 0 1 5.88,-2.89 l 9.64,3.29 a 4.64,4.64 0 0 1 2.89,5.88 z m -15.31,-7.8 13.78,4.7 1.36,-4 a 2.19,2.19 0 0 0 -1.33,-2.79 l -9.64,-3.29 a 2.19,2.19 0 0 0 -2.78,1.36 z"
     id="path72" />
  <path
     class="cls-10"
     d="m 44.597899,266.00917 52.479213,17.90627 -8.341191,24.44614 a 7.16,7.16 0 0 1 -9.08855,4.46424 L 40.72095,299.54385 a 7.16,7.16 0 0 1 -4.464243,-9.08855 z"
     id="path74" />
  <path
     class="cls-11"
     d="m 93.583388,287.56671 -25,-3 a 6.27,6.27 0 0 1 -2.49,-0.85 l -21.58,-12.9 a 2.7,2.7 0 0 1 -1.17,-3.19 l 2.07,-6.08 a 2.7,2.7 0 0 1 3.43,-1.68 l 48,16.38 a 2.7,2.7 0 0 1 1.68,3.43 l -2.07,6.08 a 2.7,2.7 0 0 1 -2.87,1.81 z"
     id="path76" />
  <path
     class="cls-9"
     d="m 85.673388,252.93671 c 0,0 3.44,9.47 1.52,10.87 -1.92,1.4 -5.46,-3.84 -6.57,-1.85 -1.11,1.99 2.51,5.76 -2.44,6.05 -4.95,0.29 -9.38,-3.47 -8.86,-8.71 0.52,-5.24 4.75,-8.5 4.74,-10.08 l 1,-3.28 11.37,3.84 z"
     id="path78" />
  <path
     class="cls-12"
     d="m 73.133388,248.93671 13.74,4.39 2.89,-6.06 v -0.11 l 13.640002,-28.51 14.4,-3.53 6.18,-1.51 1,-0.25 7.34,-1.8 6,-1.48 -7.58,-25 c 0,0 -2.58,0.4 -6.59,1.49 -1.43,0.39 -3,0.86 -4.8,1.44 l -1.39,0.47 c -1,0.33 -2,0.71 -3,1.11 -7.64,3 -16.740002,7.66 -24.120002,14.91 -11,10.82 -15.29,27.9 -16.87,37.42 0,0.13 0,0.26 -0.06,0.39 -0.62,4.04 -0.78,6.63 -0.78,6.63 z"
     id="path80"
     style="fill:url(#linear-gradient-2)" />
  <path
     class="cls-5"
     d="m 119.41339,188.00671 -1.39,0.47 a 86.74,86.74 0 0 0 7,24.89 l 7.34,-1.8 6,-1.48 -7.58,-25 c 0,0 -2.58,0.4 -6.59,1.49 -1.41,0.37 -3.03,0.83 -4.78,1.43 z"
     id="path82" />
  <path
     class="cls-13"
     d="m 73.953388,242.30671 c -0.66,4 -0.83,6.63 -0.83,6.63 l 13.74,4.39 2.89,-6.06 v -0.11 a 58,58 0 0 1 -15.8,-4.85 z"
     id="path84" />
  <rect
     class="cls-14"
     x="245.23306"
     y="183.53157"
     width="17.57"
     height="32.34"
     rx="2.3599999"
     ry="2.3599999"
     transform="rotate(-11.73)"
     id="rect86" />
  <path
     class="cls-15"
     d="m 281.49039,132.41331 9.702,-1.98 a 1.640328,1.640328 0 0 1 1.9352,1.2792 l 4.522,22.1578 -12.9164,2.636 -4.522,-22.1578 a 1.640328,1.640328 0 0 1 1.2792,-1.9352 z"
     id="path88"
     style="stroke-width:1.0002" />
  <path
     class="cls-9"
     d="m 272.67339,157.07671 3.17,-1.1 c 0,0 2.64,1.39 6.86,-0.56 l -2.56,-12.32 c 0,0 4.41,-3.07 4.34,-4.91 -0.07,-1.84 -8.71,-1.4 -12.18,7 l -3.84,1.62 z"
     id="path90" />
  <path
     class="cls-16"
     d="m 273.67339,160.80671 c 0,0 -1.68,1.15 -4.69,2.89 -9.86,5.74 -34,18 -60.51,17.84 -0.84,0 -1.68,0 -2.52,-0.06 -0.84,-0.06 -1.89,-0.08 -2.84,-0.15 -2.54,-0.19 -5.08,-0.5 -7.64,-0.93 l -3.32,-25.47 8.79,0.43 2.41,0.12 1.43,0.07 23.3,1.15 35.19,-11.2 5,-1.61 c 0,0 6.31,4.4 5.4,16.92 z"
     id="path92"
     style="fill:url(#linear-gradient-3)" />
  <path
     class="cls-5"
     d="m 205.94339,181.48671 c -0.94,0 -1.89,-0.08 -2.84,-0.15 -2.54,-0.19 -5.08,-0.5 -7.64,-0.93 l -3.32,-25.47 8.79,0.43 2.41,0.12 a 83.6,83.6 0 0 1 1.67,8.23 88.44,88.44 0 0 1 0.93,17.77 z"
     id="path94" />
  <path
     class="cls-13"
     d="m 268.29339,143.87671 -5,1.61 c 2.39,4.48 5.35,11.31 5.71,18.22 3,-1.75 4.69,-2.89 4.69,-2.89 0.89,-12.53 -5.4,-16.94 -5.4,-16.94 z"
     id="path96" />
  <path
     class="cls-17"
     d="m 253.75339,259.04671 v 0 a 1.53,1.53 0 0 1 -0.81,2 l -16.07,6.86 -1.2,-2.81 16.07,-6.85 a 1.53,1.53 0 0 1 2.01,0.8 z"
     id="path98" />
  <path
     class="cls-6"
     d="m 216.67339,274.82671 a 11,11 0 1 0 5.86,-14.42 11,11 0 0 0 -5.86,14.42 z m 18.29,-7.8 a 8.86,8.86 0 1 1 -11.58,-4.62 8.86,8.86 0 0 1 11.62,4.63 z"
     id="path100" />
  <path
     class="cls-9"
     d="m 237.51339,251.26671 1.1,3.32 a 46.23,46.23 0 0 1 0.13,5.46 c -0.16,1.82 -1.51,4.89 0.27,5.33 1.78,0.44 1.39,4.32 5.23,3.44 3.84,-0.88 9.64,-4.37 9.49,-7.49 -0.15,-3.12 -4.71,-8.74 -4.71,-8.74 l -0.67,-3 z"
     id="path102" />
  <path
     class="cls-18"
     d="m 250.22339,248.93671 -13.74,4.39 -2.89,-6.06 v -0.11 l -13.64,-28.51 -14.4,-3.53 -6.18,-1.51 -1,-0.25 -7.34,-1.8 -6,-1.48 7.58,-25 c 0,0 2.58,0.4 6.59,1.49 1.43,0.39 3,0.86 4.8,1.44 l 1.39,0.47 c 1,0.33 2,0.71 3,1.11 7.64,3 16.74,7.66 24.12,14.91 11,10.82 15.29,27.9 16.87,37.42 0,0.13 0,0.26 0.06,0.39 0.62,4.04 0.78,6.63 0.78,6.63 z"
     id="path104"
     style="fill:url(#linear-gradient-4)" />
  <path
     class="cls-5"
     d="m 203.94339,188.00671 1.39,0.47 a 86.74,86.74 0 0 1 -7,24.89 l -7.34,-1.8 -6,-1.48 7.58,-25 c 0,0 2.58,0.4 6.59,1.49 1.41,0.37 3.03,0.83 4.78,1.43 z"
     id="path106" />
  <path
     class="cls-13"
     d="m 233.54339,247.16671 v 0.11 l 2.89,6.06 13.74,-4.39 c 0,0 -0.17,-2.59 -0.83,-6.63 a 58,58 0 0 1 -15.8,4.85 z"
     id="path108" />
  <path
     class="cls-19"
     d="m 114.92339,67.186709 c 0,0 -6.07,-2.67 -6.58,-4.9 -0.51,-2.23 -1.36,-7.36 -3.1,-7.7 -1.74,-0.34 -0.73,7.92 -0.73,7.92 0,0 -0.47,-7.85 -2.81,-8.68 -2.340002,-0.83 -0.39,9.71 -0.63,9.36 -0.24,-0.35 -1.360002,-8 -2.610002,-7.83 -1.25,0.17 -1.68,7.79 0.09,11.53 a 30.17,30.17 0 0 1 2.340002,7.07 l 11,0.73 z"
     id="path110" />
  <path
     class="cls-9"
     d="m 112.67339,74.646709 a 16.7,16.7 0 0 0 6.86,-10.69 c 1,-5 -3.68,-0.74 -5.22,2.82 0,0 -8,-0.48 -9.38,7.33 z"
     id="path112" />
  <path
     class="cls-20"
     d="m 101.41339,121.46671 c 5.27,11 14,19.42 20.82,24.84 l 0.44,0.34 0.17,0.13 a 78.48,78.48 0 0 0 9.56,6.47 l 15.62,-21 -5.16,-3.43 -2.27,-1.51 -1.32,-0.87 -21.24,-14.03 -3.18,-31.570001 -0.67,-6.66 -14.420002,-0.53 c 0,0 -0.76,2.65 -1.54,6.91 -1.74,9.49 -3.5,27.000001 3.190002,40.910001 z"
     id="path114"
     style="fill:url(#linear-gradient-5)" />
  <path
     class="cls-5"
     d="m 132.38339,153.25671 15.62,-21 -5.16,-3.43 -2.27,-1.51 -1.32,-0.87 c -4.51,2.53 -11.49,8.19 -16.42,20.31 a 78.48,78.48 0 0 0 9.55,6.5 z"
     id="path116" />
  <path
     class="cls-13"
     d="m 98.213388,80.546709 a 80.64,80.64 0 0 1 16.630002,0.29 l -0.67,-6.67 -14.420002,-0.53 c 0,0 -0.76,2.65 -1.54,6.91 z"
     id="path118" />
  <path
     class="cls-8"
     d="m 118.67339,30.786709 a 8.82,8.82 0 1 0 -15.06,6.23 10,10 0 0 1 2.59,4.45 l 0.71,2.63 h 5.76 l 0.67,-2.49 a 10,10 0 0 1 2.67,-4.53 8.79,8.79 0 0 0 2.66,-6.29 z"
     id="path120" />
  <path
     class="cls-21"
     d="m 107.80339,32.776709 a 1.15,1.15 0 1 0 0.66,2.09 v 9.22 h 0.49 v -10.16 a 1.15,1.15 0 0 0 -1.15,-1.15 z m 0,1.81 a 0.66,0.66 0 1 1 0.66,-0.66 0.66,0.66 0 0 1 -0.66,0.66 z"
     id="path122" />
  <path
     class="cls-21"
     d="m 111.22339,33.776709 a 1.15,1.15 0 0 0 -1.15,1.15 l -0.06,9.16 h 0.49 l 0.06,-8.22 a 1.15,1.15 0 1 0 0.66,-2.09 z m 0,1.81 a 0.66,0.66 0 1 1 0.66,-0.66 0.66,0.66 0 0 1 -0.66,0.66 z"
     id="path124" />
  <path
     class="cls-22"
     d="m 109.77339,47.406709 v 0 a 3,3 0 0 1 -3,-3 v -0.7 h 6 v 0.7 a 3,3 0 0 1 -3,3 z"
     id="path126" />
  <path
     class="cls-23"
     d="m 112.80339,45.086709 h -6.07 a 0.23,0.23 0 0 1 -0.23,-0.23 v 0 a 0.23,0.23 0 0 1 0.23,-0.23 h 6.07 a 0.23,0.23 0 0 1 0.23,0.23 v 0 a 0.23,0.23 0 0 1 -0.23,0.23 z"
     id="path128" />
  <path
     class="cls-23"
     d="m 112.84339,46.066709 h -6.07 a 0.23,0.23 0 0 1 -0.23,-0.23 v 0 a 0.23,0.23 0 0 1 0.23,-0.23 h 6.07 a 0.23,0.23 0 0 1 0.23,0.23 v 0 a 0.23,0.23 0 0 1 -0.23,0.23 z"
     id="path130" />
  <path
     class="cls-8"
     d="m 99.103388,30.406709 h -2.31 a 0.45,0.45 0 0 1 -0.45,-0.45 v 0 a 0.45,0.45 0 0 1 0.45,-0.45 h 2.31 a 0.45,0.45 0 0 1 0.45,0.45 v 0 a 0.45,0.45 0 0 1 -0.45,0.45 z"
     id="path132" />
  <path
     class="cls-8"
     d="m 99.813388,26.246709 -2.05,-1.07 a 0.45,0.45 0 0 1 -0.19,-0.6 v 0 a 0.45,0.45 0 0 1 0.6,-0.19 l 2.050002,1.07 a 0.45,0.45 0 0 1 0.19,0.6 v 0 a 0.45,0.45 0 0 1 -0.600002,0.19 z"
     id="path134" />
  <path
     class="cls-8"
     d="m 99.963388,33.586709 -2.05,1.07 a 0.45,0.45 0 0 0 -0.19,0.6 v 0 a 0.45,0.45 0 0 0 0.6,0.19 l 2.050002,-1.04 a 0.45,0.45 0 0 0 0.19,-0.6 v 0 a 0.45,0.45 0 0 0 -0.600002,-0.22 z"
     id="path136" />
  <path
     class="cls-8"
     d="m 102.31339,22.816709 -1.64,-1.64 a 0.44,0.44 0 0 1 0,-0.63 v 0 a 0.45,0.45 0 0 1 0.63,0 l 1.64,1.64 a 0.45,0.45 0 0 1 0,0.63 v 0 a 0.45,0.45 0 0 1 -0.63,0 z"
     id="path138" />
  <path
     class="cls-8"
     d="m 105.14339,20.636709 -0.8,-2.17 a 0.45,0.45 0 0 1 0.26,-0.57 v 0 a 0.45,0.45 0 0 1 0.57,0.26 l 0.8,2.17 a 0.45,0.45 0 0 1 -0.26,0.57 v 0 a 0.45,0.45 0 0 1 -0.57,-0.26 z"
     id="path140" />
  <path
     class="cls-8"
     d="m 120.60339,30.096709 h 2.31 a 0.45,0.45 0 0 0 0.45,-0.45 v 0 a 0.45,0.45 0 0 0 -0.45,-0.45 h -2.31 a 0.45,0.45 0 0 0 -0.45,0.45 v 0 a 0.45,0.45 0 0 0 0.45,0.45 z"
     id="path142" />
  <path
     class="cls-8"
     d="m 119.89339,25.956709 2.05,-1.07 a 0.45,0.45 0 0 0 0.19,-0.6 v 0 a 0.45,0.45 0 0 0 -0.6,-0.19 l -2.05,1.07 a 0.45,0.45 0 0 0 -0.19,0.6 v 0 a 0.45,0.45 0 0 0 0.6,0.19 z"
     id="path144" />
  <path
     class="cls-8"
     d="m 119.75339,33.296709 2.05,1.11 a 0.45,0.45 0 0 1 0.19,0.6 v 0 a 0.45,0.45 0 0 1 -0.6,0.19 l -2.05,-1.07 a 0.45,0.45 0 0 1 -0.19,-0.6 v 0 a 0.45,0.45 0 0 1 0.6,-0.23 z"
     id="path146" />
  <path
     class="cls-8"
     d="m 117.40339,22.516709 1.64,-1.64 a 0.44,0.44 0 0 0 0,-0.63 v 0 a 0.44,0.44 0 0 0 -0.63,0 l -1.64,1.64 a 0.45,0.45 0 0 0 0,0.63 v 0 a 0.45,0.45 0 0 0 0.63,0 z"
     id="path148" />
  <path
     class="cls-8"
     d="m 114.56339,20.346709 0.8,-2.17 a 0.45,0.45 0 0 0 -0.26,-0.57 v 0 a 0.45,0.45 0 0 0 -0.57,0.26 l -0.8,2.17 a 0.45,0.45 0 0 0 0.26,0.57 v 0 a 0.45,0.45 0 0 0 0.57,-0.26 z"
     id="path150" />
  <path
     class="cls-8"
     d="m 109.36339,19.656709 v -2.32 a 0.45,0.45 0 0 1 0.45,-0.45 v 0 a 0.45,0.45 0 0 1 0.45,0.45 v 2.31 a 0.45,0.45 0 0 1 -0.45,0.45 v 0 a 0.45,0.45 0 0 1 -0.45,-0.44 z"
     id="path152" />
  <path
     class="cls-19"
     d="m 208.67339,66.886709 c 0,0 6.07,-2.67 6.58,-4.9 0.51,-2.23 1.36,-7.36 3.1,-7.7 1.74,-0.34 0.73,7.92 0.73,7.92 0,0 0.47,-7.85 2.81,-8.68 2.34,-0.83 0.39,9.71 0.63,9.36 0.24,-0.35 1.36,-8 2.61,-7.83 1.25,0.17 1.68,7.79 -0.09,11.53 a 30.17,30.17 0 0 0 -2.34,7.07 l -11,0.73 z"
     id="path154" />
  <path
     class="cls-9"
     d="m 211.00339,74.346709 a 16.7,16.7 0 0 1 -6.86,-10.69 c -1,-5 3.68,-0.74 5.22,2.82 0,0 8,-0.48 9.38,7.33 z"
     id="path156" />
  <path
     class="cls-24"
     d="m 221.94339,121.46671 c -5.27,11 -14,19.42 -20.82,24.84 l -0.44,0.34 -0.17,0.13 a 78.48,78.48 0 0 1 -9.56,6.47 l -15.62,-21 5.16,-3.43 2.27,-1.51 1.32,-0.87 21.24,-14.03 3.18,-31.570001 0.67,-6.66 14.42,-0.53 c 0,0 0.76,2.65 1.54,6.91 1.74,9.49 3.54,27.000001 -3.19,40.910001 z"
     id="path158"
     style="fill:url(#linear-gradient-6)" />
  <path
     class="cls-5"
     d="m 190.97339,153.25671 -15.62,-21 5.16,-3.43 2.27,-1.51 1.32,-0.87 c 4.51,2.53 11.49,8.19 16.42,20.31 a 78.48,78.48 0 0 1 -9.55,6.5 z"
     id="path160" />
  <path
     class="cls-13"
     d="m 209.17339,74.166709 -0.67,6.67 a 80.64,80.64 0 0 1 16.63,-0.29 c -0.78,-4.26 -1.54,-6.91 -1.54,-6.91 z"
     id="path162" />
  <circle
     class="cls-25"
     cx="211.37338"
     cy="33.786709"
     r="9.5200005"
     id="circle164" />
  <path
     class="cls-8"
     d="m 211.37339,23.076709 a 10.71,10.71 0 1 0 10.7,10.7 10.71,10.71 0 0 0 -10.7,-10.7 z m 0,19.6 a 8.89,8.89 0 0 1 -8.9,-8.9 8.89,8.89 0 0 1 6.25,-8.5 8.9,8.9 0 1 1 2.64,17.39 z"
     id="path166" />
  <g
     id="_Group_"
     data-name="&lt;Group&gt;"
     transform="translate(0.00338843,0.00670878)">
    <path
       id="_Compound_Path_"
       data-name="&lt;Compound Path&gt;"
       class="cls-8"
       d="m 217.41,32.7 v -2.58 c 1.22,0.21 1.22,1 1.22,1.24 h 1.43 a 2.65,2.65 0 0 0 -2.65,-2.69 v -1 H 216 v 1 a 2.69,2.69 0 0 0 0,5.33 v 2.58 c -1.22,-0.21 -1.22,-1 -1.22,-1.24 h -1.43 a 2.65,2.65 0 0 0 2.65,2.74 v 1 h 1.43 v -1 a 2.69,2.69 0 0 0 0,-5.38 z m -2.65,-1.34 c 0,-0.28 0,-1 1.22,-1.24 v 2.48 c -1.22,-0.21 -1.22,-0.97 -1.22,-1.24 z m 2.65,5.27 v -2.48 c 1.22,0.21 1.22,1 1.22,1.24 0,0.24 0,1.03 -1.22,1.24 z"
       transform="translate(-5.33,0.4)" />
  </g>
  <path
     class="cls-26"
     d="m 161.29339,374.40671 h -22.44 c 0,0 -6.41,-79.15 -4.13,-148.26 h 28.35 l 4.16,59.89 c 0,0 -5.35,57.96 -5.94,88.37 z"
     id="path170" />
  <path
     class="cls-14"
     d="m 156.10339,374.45671 c -2.52,-35.38 4.7,-109 4.77,-109.73 l 1.18,0.12 c -0.07,0.74 -7.28,74.25 -4.77,109.53 z"
     id="path172" />
  <path
     class="cls-27"
     d="m 160.67339,387.89671 a 7.16,7.16 0 0 1 -0.3,2.67 c -1.09,2.16 -37.71,1.67 -39.87,1.57 -1.89,-0.08 -1.61,-6.12 7.28,-9.59 a 30.28,30.28 0 0 1 4.44,-1.33 c 8.86,-2 8.56,-6.79 8.56,-6.79 h 18.41 a 124.42,124.42 0 0 1 1.48,13.47 z"
     id="path174"
     style="fill:url(#linear-gradient-7)" />
  <path
     class="cls-13"
     d="m 160.67339,387.89671 a 7.16,7.16 0 0 1 -0.3,2.67 c -1.09,2.16 -37.71,1.67 -39.87,1.57 -1.89,-0.08 -1.61,-6.12 7.28,-9.59 2.16,0.41 4.49,2.1 5.42,7.09 0.04,0 19.08,0.21 27.47,-1.74 z"
     id="path176" />
  <path
     class="cls-28"
     d="m 201.91339,390.50671 c -2.78,1.23 -12.29,1.61 -17.92,1 a 10,10 0 0 1 -3.93,-1 c -2.52,-1.77 0.14,-16 0.14,-16 h 13.59 c 0,0 -0.3,5.27 3.26,6.9 a 12.77,12.77 0 0 1 3.58,2.66 l 0.2,0.21 a 10.29,10.29 0 0 1 1.2,1.46 c 1.37,1.92 1.79,3.93 -0.12,4.77 z"
     id="path178"
     style="fill:url(#linear-gradient-8)" />
  <path
     class="cls-13"
     d="m 201.91339,390.50671 c -2.78,1.23 -12.29,1.61 -17.92,1 -0.59,-7 5.17,-10.42 9.93,-10.42 a 9.63,9.63 0 0 1 6.7,3 l 0.2,0.21 a 10.29,10.29 0 0 1 1.2,1.46 c 1.38,1.9 1.8,3.91 -0.11,4.75 z"
     id="path180" />
  <path
     class="cls-14"
     d="m 156.67339,228.99671 19.39,145.41 h 21 l -4.46,-126.1 a 133,133 0 0 0 1.38,-22.15 z"
     id="path182" />
  <path
     class="cls-29"
     d="m 191.83339,374.40671 h -1.16 c 1.38,-40.64 -5.64,-124.9 -5.71,-125.74 1.17,-12.81 -0.65,-19.65 -0.67,-19.72 l 1.14,-0.31 c 0.08,0.28 1.9,7.09 0.71,20 0.05,0.77 7.07,85.09 5.69,125.77 z"
     id="path184" />
  <path
     class="cls-30"
     d="m 128.76339,193.67671 c 0,0 -4.24,11.81 -14.87,5.61 -10.63,-6.2 1.65,-33.53 1.65,-33.53 z"
     id="path186"
     style="fill:url(#linear-gradient-9)" />
  <path
     class="cls-9"
     d="m 120.09339,159.92671 c 0,0 -1,-3.47 4,-4.5 5,-1.03 7.16,2.14 8.49,5.17 z"
     id="path188" />
  <path
     class="cls-31"
     d="m 194.80339,183.40671 c -3.83,9.52 -3.56,11.53 -3.56,11.53 l 2.74,31.21 c 0,0 -44.78,15.06 -59.27,0 l -1.42,-25.19 -0.72,-12.82 -0.14,-0.69 -5.65,-27.18 5.79,0.31 c -1,-2.28 -2.48,-4.67 -5.3,-5.25 1.82,-4.56 6,-14 11.08,-17.65 6.77,-4.94 20.72,-10.92 41.11,-5.09 20.39,5.83 19.15,41.31 15.34,50.82 z"
     id="path190"
     style="fill:url(#linear-gradient-10)" />
  <path
     class="cls-32"
     d="m 191.24339,194.94671 c 0,0 -0.61,16.65 -15.77,21.17 -15.16,4.52 -27.27,-13.59 -29.83,-15 -2.13,-1.19 -9.78,-0.41 -12.34,-0.11 l -0.72,-12.82 -0.14,-0.69 12.78,-2.4 19.34,18.25 z"
     id="path192" />
  <path
     class="cls-33"
     d="m 177.83339,164.92671 c 0,0 -16.23,5 -38.59,0 v 22.1 c 0,0 24.41,5.17 42.53,0 z"
     id="path194" />
  <path
     class="cls-5"
     d="m 181.77339,151.17671 c 0,0 -11.15,42.94 -29.6,29.23 l -5.17,5.75 25.74,16 z"
     id="path196" />
  <path
     class="cls-34"
     d="m 167.08339,126.03671 c 0,0 5.74,-8.56 3.3,-18.3 -2.44,-9.740001 -7.9,-7.53 -7.9,-7.53 0,0 4,-6.350001 -2.81,-9.450001 -6.81,-3.1 -11.57,-0.59 -6.76,1.18 0,0 -9.92,0 -15.68,6.2 -5.76,6.200001 -9.89,-0.15 -11.52,1.18 -1.63,1.330001 1.4,5.620001 4,6.050001 0,0 -6.2,-1.33 -6.64,0 -0.44,1.33 3.51,9.74 12.52,9.59 0,0 -1.15,5.45 8,11.07 9.15,5.62 23.49,0.01 23.49,0.01 z"
     id="path198"
     style="fill:url(#linear-gradient-11)" />
  <path
     class="cls-9"
     d="m 170.38339,133.71671 a 27.23,27.23 0 0 1 -1.07,3.06 c -1.71,4.1 -5.56,10.86 -12.37,10.6 -2.33,-0.08 -3.1,-2 -3.33,-4.54 -0.34,-3.41 0.27,-7.82 -0.8,-9.86 l 6.62,-8.52 4.39,-5.66 0.74,-1 a 78.75,78.75 0 0 0 5.82,15.92 z"
     id="path200" />
  <path
     class="cls-35"
     d="m 169.30339,136.77671 c -1.71,4.1 -5.56,10.86 -12.37,10.6 -2.33,-0.08 -3.1,-2 -3.33,-4.54 -0.34,-3.41 0.27,-7.82 -0.8,-9.86 l 6.62,-8.52 5,-1.75 c 0,0 -0.14,10.07 -8.09,16.39 0,0 4.06,1.44 9.47,-4 1.17,-1.14 2.35,-0.12 3.5,1.68 z"
     id="path202" />
  <path
     class="cls-14"
     d="m 167.67339,127.57671 0.72,1.79 c 0,0 -2.29,9.45 -10.27,12.25 l 0.75,9 c 0,0 11.72,-5.68 13.86,-18 0.01,0 -2.32,-5.21 -5.06,-5.04 z"
     id="path204" />
  <path
     class="cls-14"
     d="m 154.94339,141.21671 -1,9.29 c 0,0 -7,-5 -4.67,-15.41 0,0 2.65,1.63 4.64,1.26 0.02,0 -0.96,1.83 1.03,4.86 z"
     id="path206" />
  <path
     class="cls-9"
     d="m 138.36339,114.22671 c 2.09,8.9 4.56,17.44 11.93,21.45 a 6,6 0 0 0 6,-0.16 c 3.57,-2.2 9,-7.25 8.27,-17.35 0,0 2.44,0.89 2.84,-3.94 0.4,-4.83 -1.26,-5.66 -3.05,-5.27 -1.79,0.39 -1.62,6.84 -1.62,6.84 0,0 -6.3,-1.35 -7.7,-9.77 0,0 -2.66,3.77 -4.95,4.73 -2.29,0.96 -1.41,-3.35 -1.41,-3.35 0,0 -1.65,6.16 -10.31,6.82 z"
     id="path208" />
  <rect
     class="cls-6"
     x="104.9391"
     y="168.05945"
     width="24.87071"
     height="35.817432"
     rx="2.8168759"
     ry="2.8168759"
     transform="rotate(-4.0041729)"
     id="rect210"
     style="stroke-width:1.00245" />
  <rect
     class="cls-36"
     x="103.53538"
     y="167.57411"
     width="24.809999"
     height="35.73"
     rx="2.8099999"
     ry="2.8099999"
     transform="rotate(-4.06)"
     id="rect212" />
  <ellipse
     class="cls-37"
     cx="115.04965"
     cy="185.51355"
     rx="2.6099999"
     ry="3.8099999"
     transform="rotate(-4.06)"
     id="ellipse214" />
  <path
     class="cls-9"
     d="m 148.86339,179.01671 c 0,0 -1.23,-7.72 -7,-8 v 3.11 c 0,0 -3.75,0.89 -6,-1.7 -2.25,-2.59 -4.73,-4.55 -4.13,2.6 0.6,7.15 5.61,10.62 11,10.25 l 2.07,1.77 5.91,-6 z"
     id="path216" />
  <path
     class="cls-38"
     d="m 178.03339,210.80671 c -13.85,5.34 -26.41,-9.6 -32.16,-18 -2.1,-3.06 -3.28,-5.25 -3.28,-5.25 l 8.46,-8.07 4.74,3.85 14.59,11.9 c 0,0 2.53,-11.61 4.7,-25.2 2.17,-13.59 5.72,-22.16 13.18,-21.06 14.77,2.17 8.67,54.54 -10.23,61.83 z"
     id="path218"
     style="fill:url(#linear-gradient-12)" />
  <path
     class="cls-13"
     d="m 155.79339,183.34671 a 30.17,30.17 0 0 1 -9.91,9.46 c -2.1,-3.06 -3.28,-5.25 -3.28,-5.25 l 8.46,-8.07 z"
     id="path220" />
</svg>
