<svg width="260" height="89" xmlns="http://www.w3.org/2000/svg" data-name="Layer 1">
 <defs>
  <linearGradient y2="0.50002" x2="1" y1="0.50002" x1="0.0001" id="linear-gradient">
   <stop stop-color="#3b2519" offset="0"/>
   <stop stop-color="#3f2719" offset="0.03"/>
   <stop stop-color="#5c331b" offset="0.27"/>
   <stop stop-color="#6e3b1d" offset="0.48"/>
   <stop stop-color="#743e1d" offset="0.64"/>
   <stop stop-color="#6f3c1c" offset="0.74"/>
   <stop stop-color="#61351a" offset="0.86"/>
   <stop stop-color="#4a2b17" offset="0.99"/>
   <stop stop-color="#482a17" offset="1"/>
  </linearGradient>
  <linearGradient y2="0.50016" x2="0.99996" y1="0.50016" x1="-0.00022" id="linear-gradient-2">
   <stop stop-color="#f9f9ec" offset="0.04"/>
   <stop stop-color="#f9f9ec" offset="0.42"/>
   <stop stop-color="#f3f1e2" offset="0.49"/>
   <stop stop-color="#e4ddc6" offset="0.62"/>
   <stop stop-color="#ccbc9a" offset="0.79"/>
   <stop stop-color="#caba97" offset="0.8"/>
   <stop stop-color="#baa685" offset="1"/>
  </linearGradient>
  <linearGradient y2="0.50288" x2="1.00002" y1="0.50288" x1="0" id="linear-gradient-3">
   <stop stop-color="#e3606e" offset="0"/>
   <stop stop-color="#e5737d" offset="0.03"/>
   <stop stop-color="#e78188" offset="0.08"/>
   <stop stop-color="#e8898e" offset="0.13"/>
   <stop stop-color="#e88b90" offset="0.22"/>
   <stop stop-color="#e9868b" offset="0.35"/>
   <stop stop-color="#ec787d" offset="0.51"/>
   <stop stop-color="#f16167" offset="0.68"/>
   <stop stop-color="#d8273c" offset="1"/>
  </linearGradient>
  <linearGradient y2="0.50001" x2="0.99438" y1="0.50001" x1="-0.00359" id="linear-gradient-4">
   <stop stop-color="#e8dbca" offset="0"/>
   <stop stop-color="#f2ecde" offset="1"/>
  </linearGradient>
  <linearGradient y2="0.5893" x2="1.02827" y1="0.35416" x1="0.46653" id="linear-gradient-5">
   <stop stop-color="#ece1d1" offset="0"/>
   <stop stop-color="#eee6d9" offset="0.43"/>
   <stop stop-color="#efe9de" offset="1"/>
  </linearGradient>
  <linearGradient y2="0.50003" x2="1.00116" y1="0.50003" x1="0.00396" id="linear-gradient-6">
   <stop stop-color="#ece1d1" offset="0"/>
   <stop stop-color="#ede4d5" offset="1"/>
  </linearGradient>
  <linearGradient y2="0.538" x2="0.49229" y1="0.33233" x1="0.51076" id="linear-gradient-7">
   <stop stop-color="#baa68a" offset="0"/>
   <stop stop-color="#c7baa0" offset="1"/>
  </linearGradient>
  <linearGradient y2="0.49982" x2="0.99507" y1="0.49982" x1="-0.00493" id="linear-gradient-8">
   <stop stop-color="#bdae99" offset="0"/>
   <stop stop-color="#bfb19c" offset="0.26"/>
   <stop stop-color="#c2b5a1" offset="1"/>
  </linearGradient>
 </defs>
 <g>
  <title>Layer 1</title>
  <g id="svg_1">
   <path id="svg_2" fill="#282827" d="m116.44,95.21l-0.61,0a0.29,0.29 0 0 1 -0.17,0a0.36,0.36 0 0 1 -0.1,-0.14l-0.56,-1.53l-2.64,0l-0.56,1.46a0.42,0.42 0 0 1 -0.09,0.14a0.25,0.25 0 0 1 -0.17,0.06l-0.61,0l2.36,-6.12l0.8,0l2.35,6.13zm-1.66,-2.27l-0.92,-2.49a2.56,2.56 0 0 1 -0.09,-0.26l-0.09,-0.31a4.9,4.9 0 0 1 -0.18,0.57l-0.93,2.48l2.21,0l0,0.01z" class="cls-1"/>
   <path id="svg_3" fill="#282827" d="m117.64,91.51a2.62,2.62 0 0 1 0.3,-0.28a1.66,1.66 0 0 1 0.32,-0.22a1.14,1.14 0 0 1 0.36,-0.15a1.79,1.79 0 0 1 0.42,0a1.43,1.43 0 0 1 0.6,0.12a1.32,1.32 0 0 1 0.43,0.34a1.25,1.25 0 0 1 0.27,0.51a2.38,2.38 0 0 1 0.09,0.68l0,2.75l-0.74,0l0,-2.8a1.24,1.24 0 0 0 -0.21,-0.77a0.78,0.78 0 0 0 -0.66,-0.27a1.12,1.12 0 0 0 -0.6,0.16a2.14,2.14 0 0 0 -0.53,0.44l0,3.19l-0.69,0l0,-4.33l0.44,0a0.18,0.18 0 0 1 0.19,0.17l0.01,0.46z" class="cls-1"/>
   <path id="svg_4" fill="#282827" d="m176.37,94.54l0,0.67l-3.63,0l0,-6.12l3.63,0l0,0.67l-2.83,0l0,2l2.29,0l0,0.65l-2.29,0l0,2.08l2.83,0l0,0.05z" class="cls-1"/>
   <path id="svg_5" fill="#282827" d="m180.51,88.93l0,6.29l-0.44,0a0.18,0.18 0 0 1 -0.19,-0.16l-0.07,-0.52a2.29,2.29 0 0 1 -0.6,0.53a1.52,1.52 0 0 1 -0.79,0.2a1.63,1.63 0 0 1 -0.66,-0.14a1.23,1.23 0 0 1 -0.49,-0.42a2.16,2.16 0 0 1 -0.27,-0.71a3.82,3.82 0 0 1 -0.11,-1a3.07,3.07 0 0 1 0.12,-0.88a2.2,2.2 0 0 1 0.35,-0.72a1.6,1.6 0 0 1 1.32,-0.65a1.5,1.5 0 0 1 0.66,0.13a1.75,1.75 0 0 1 0.48,0.38l0,-2.33l0.69,0zm-0.74,3a1.25,1.25 0 0 0 -0.44,-0.4a1.33,1.33 0 0 0 -0.54,-0.11a1,1 0 0 0 -0.88,0.43a2,2 0 0 0 -0.32,1.23a3.12,3.12 0 0 0 0.07,0.73a1.3,1.3 0 0 0 0.21,0.49a0.91,0.91 0 0 0 0.33,0.29a1,1 0 0 0 0.44,0.09a1.14,1.14 0 0 0 0.64,-0.18a1.71,1.71 0 0 0 0.49,-0.48l0,-2.11l0,0.02z" class="cls-1"/>
   <path id="svg_6" fill="#282827" d="m185,90.88l0,4.33l-0.44,0a0.19,0.19 0 0 1 -0.2,-0.16l-0.06,-0.46a2.23,2.23 0 0 1 -0.61,0.5a1.49,1.49 0 0 1 -0.77,0.19a1.44,1.44 0 0 1 -0.61,-0.12a1.18,1.18 0 0 1 -0.43,-0.33a1.41,1.41 0 0 1 -0.26,-0.52a2.29,2.29 0 0 1 -0.09,-0.66l0,-2.77l0.73,0l0,2.77a1.18,1.18 0 0 0 0.21,0.75a0.79,0.79 0 0 0 0.66,0.28a1,1 0 0 0 0.6,-0.17a1.83,1.83 0 0 0 0.53,-0.44l0,-3.19l0.74,0z" class="cls-1"/>
   <path id="svg_7" fill="#282827" d="m189,91.65a0.23,0.23 0 0 1 -0.07,0.07s0,0 -0.09,0a0.24,0.24 0 0 1 -0.13,0l-0.18,-0.12l-0.28,-0.12a1.06,1.06 0 0 0 -0.38,0a1.33,1.33 0 0 0 -0.54,0.11a1,1 0 0 0 -0.4,0.32a1.67,1.67 0 0 0 -0.24,0.52a2.73,2.73 0 0 0 -0.08,0.67a2.48,2.48 0 0 0 0.09,0.7a1.72,1.72 0 0 0 0.24,0.51a1.1,1.1 0 0 0 0.39,0.32a1.18,1.18 0 0 0 0.5,0.11a1.13,1.13 0 0 0 0.44,-0.07a1,1 0 0 0 0.29,-0.16a1,1 0 0 0 0.19,-0.15a0.24,0.24 0 0 1 0.15,-0.06a0.15,0.15 0 0 1 0.14,0.07l0.2,0.29a1.26,1.26 0 0 1 -0.31,0.3a1.65,1.65 0 0 1 -0.37,0.2a3,3 0 0 1 -0.43,0.12a2.12,2.12 0 0 1 -0.44,0a1.77,1.77 0 0 1 -0.73,-0.15a1.72,1.72 0 0 1 -0.58,-0.43a2.26,2.26 0 0 1 -0.38,-0.7a3,3 0 0 1 -0.14,-0.94a2.86,2.86 0 0 1 0.13,-0.89a2.14,2.14 0 0 1 0.38,-0.7a1.78,1.78 0 0 1 0.63,-0.47a2,2 0 0 1 0.84,-0.17a1.94,1.94 0 0 1 0.78,0.15a2,2 0 0 1 0.59,0.42l-0.21,0.25z" class="cls-1"/>
   <path id="svg_8" fill="#282827" d="m189.83,91.5a2.43,2.43 0 0 1 0.74,-0.52a2.35,2.35 0 0 1 0.89,-0.17a1.52,1.52 0 0 1 0.62,0.12a1.41,1.41 0 0 1 0.45,0.34a1.56,1.56 0 0 1 0.28,0.51a2.36,2.36 0 0 1 0.09,0.67l0,2.76l-0.32,0a0.24,0.24 0 0 1 -0.16,0a0.21,0.21 0 0 1 -0.09,-0.14l-0.08,-0.41a2.88,2.88 0 0 1 -0.33,0.28a1.38,1.38 0 0 1 -0.33,0.2a2,2 0 0 1 -0.37,0.13a1.9,1.9 0 0 1 -0.44,0a1.33,1.33 0 0 1 -0.45,-0.07a1.23,1.23 0 0 1 -0.33,-0.2a1,1 0 0 1 -0.25,-0.35a1.38,1.38 0 0 1 -0.1,-0.52a1.1,1.1 0 0 1 0.14,-0.49a1.3,1.3 0 0 1 0.44,-0.43a2.8,2.8 0 0 1 0.8,-0.3a5.56,5.56 0 0 1 1.2,-0.13l0,-0.33a1.14,1.14 0 0 0 -0.22,-0.77a0.74,0.74 0 0 0 -0.61,-0.26a1.18,1.18 0 0 0 -0.45,0.07a1.36,1.36 0 0 0 -0.32,0.16l-0.23,0.16a0.3,0.3 0 0 1 -0.19,0.07a0.2,0.2 0 0 1 -0.13,0a0.43,0.43 0 0 1 -0.09,-0.1l-0.16,-0.28zm2.37,1.76a6.16,6.16 0 0 0 -0.86,0.08a3.67,3.67 0 0 0 -0.58,0.18a0.7,0.7 0 0 0 -0.32,0.25a0.53,0.53 0 0 0 -0.1,0.32a0.84,0.84 0 0 0 0,0.29a0.52,0.52 0 0 0 0.14,0.21a0.51,0.51 0 0 0 0.22,0.11a1.26,1.26 0 0 0 0.28,0a1.29,1.29 0 0 0 0.35,0a1.34,1.34 0 0 0 0.3,-0.12l0.27,-0.19a1.48,1.48 0 0 0 0.26,-0.24l0,-0.89l0.04,0z" class="cls-1"/>
   <path id="svg_9" fill="#282827" d="m195.17,95.28a1,1 0 0 1 -0.75,-0.28a1.11,1.11 0 0 1 -0.27,-0.83l0,-2.65l-0.5,0a0.15,0.15 0 0 1 -0.11,0a0.17,0.17 0 0 1 0,-0.12l0,-0.3l0.68,-0.1l0.17,-1.34a0.24,0.24 0 0 1 0.06,-0.1a0.15,0.15 0 0 1 0.11,0l0.37,0l0,1.44l1.21,0l0,0.56l-1.21,0l0,2.59a0.52,0.52 0 0 0 0.13,0.4a0.39,0.39 0 0 0 0.32,0.14a0.71,0.71 0 0 0 0.21,0a0.46,0.46 0 0 0 0.14,-0.07l0.1,-0.08a0.13,0.13 0 0 1 0.08,0s0.07,0 0.1,0.07l0.21,0.37a1.51,1.51 0 0 1 -0.45,0.29a1.72,1.72 0 0 1 -0.6,0.01z" class="cls-1"/>
   <g id="svg_10">
    <path id="svg_11" fill="#282827" d="m216.63,95.21l-0.79,0l0,-6.12l0.79,0l0,6.12z" class="cls-1"/>
    <path id="svg_12" fill="#282827" d="m218.51,91.51a2.54,2.54 0 0 1 0.29,-0.28a1.46,1.46 0 0 1 0.33,-0.22a1.14,1.14 0 0 1 0.36,-0.15a1.77,1.77 0 0 1 0.41,0a1.48,1.48 0 0 1 0.61,0.12a1.32,1.32 0 0 1 0.43,0.34a1.37,1.37 0 0 1 0.26,0.51a2.38,2.38 0 0 1 0.09,0.68l0,2.75l-0.73,0l0,-2.8a1.24,1.24 0 0 0 -0.21,-0.77a0.81,0.81 0 0 0 -0.66,-0.27a1.18,1.18 0 0 0 -0.61,0.16a1.94,1.94 0 0 0 -0.52,0.44l0,3.19l-0.74,0l0,-4.33l0.45,0a0.18,0.18 0 0 1 0.19,0.17l0.05,0.46z" class="cls-1"/>
    <path id="svg_13" fill="#282827" d="m223.26,89.53a0.52,0.52 0 0 1 0,0.21a0.78,0.78 0 0 1 -0.11,0.18a0.52,0.52 0 0 1 -0.17,0.12a0.45,0.45 0 0 1 -0.2,0a0.49,0.49 0 0 1 -0.21,0a0.61,0.61 0 0 1 -0.16,-0.12a0.67,0.67 0 0 1 -0.11,-0.18a0.46,0.46 0 0 1 0,-0.21a0.52,0.52 0 0 1 0,-0.21a0.5,0.5 0 0 1 0.11,-0.17a0.61,0.61 0 0 1 0.16,-0.12a0.49,0.49 0 0 1 0.21,0a0.45,0.45 0 0 1 0.2,0a0.66,0.66 0 0 1 0.17,0.12a0.45,0.45 0 0 1 0.11,0.17a0.65,0.65 0 0 1 0,0.21zm-0.16,1.35l0,4.33l-0.74,0l0,-4.33l0.74,0z" class="cls-1"/>
   </g>
   <path id="svg_14" fill="#282827" d="m225.68,95.28a1,1 0 0 1 -0.76,-0.28a1.15,1.15 0 0 1 -0.26,-0.83l0,-2.65l-0.5,0a0.15,0.15 0 0 1 -0.11,0a0.17,0.17 0 0 1 -0.05,-0.12l0,-0.3l0.68,-0.1l0.17,-1.34a0.23,0.23 0 0 1 0.05,-0.1a0.16,0.16 0 0 1 0.12,0l0.37,0l0,1.44l1.21,0l0,0.56l-1.21,0l0,2.59a0.52,0.52 0 0 0 0.13,0.4a0.39,0.39 0 0 0 0.32,0.14a0.6,0.6 0 0 0 0.2,0l0.15,-0.07l0.1,-0.08a0.13,0.13 0 0 1 0.08,0s0.07,0 0.1,0.07l0.21,0.37a1.51,1.51 0 0 1 -0.45,0.29a1.72,1.72 0 0 1 -0.55,0.01z" class="cls-1"/>
   <path id="svg_15" fill="#282827" d="m228.36,89.53a0.52,0.52 0 0 1 0,0.21a0.78,0.78 0 0 1 -0.11,0.18a0.52,0.52 0 0 1 -0.25,0.08a0.52,0.52 0 0 1 -0.4,0a0.61,0.61 0 0 1 -0.16,-0.12a0.67,0.67 0 0 1 -0.11,-0.18a0.36,0.36 0 0 1 -0.05,-0.21a0.41,0.41 0 0 1 0.05,-0.21a0.5,0.5 0 0 1 0.11,-0.17a0.61,0.61 0 0 1 0.16,-0.12a0.52,0.52 0 0 1 0.4,0a0.66,0.66 0 0 1 0.17,0.12a0.45,0.45 0 0 1 0.11,0.17a0.65,0.65 0 0 1 0.08,0.25zm-0.15,1.35l0,4.33l-0.73,0l0,-4.33l0.73,0z" class="cls-1"/>
   <g id="svg_16">
    <g id="svg_17">
     <path id="svg_18" fill="#282827" d="m229.32,91.5a2.47,2.47 0 0 1 0.75,-0.52a2.28,2.28 0 0 1 0.89,-0.17a1.44,1.44 0 0 1 0.61,0.12a1.42,1.42 0 0 1 0.74,0.85a2.36,2.36 0 0 1 0.09,0.67l0,2.76l-0.32,0a0.25,0.25 0 0 1 -0.17,0a0.21,0.21 0 0 1 -0.09,-0.14l-0.08,-0.41a4,4 0 0 1 -0.32,0.28a1.38,1.38 0 0 1 -0.33,0.2a2.12,2.12 0 0 1 -0.38,0.13a1.88,1.88 0 0 1 -0.43,0a1.33,1.33 0 0 1 -0.45,-0.07a1.17,1.17 0 0 1 -0.38,-0.21a1,1 0 0 1 -0.25,-0.35a1.38,1.38 0 0 1 -0.09,-0.52a1.09,1.09 0 0 1 0.13,-0.49a1.3,1.3 0 0 1 0.44,-0.43a3,3 0 0 1 0.8,-0.3a5.64,5.64 0 0 1 1.2,-0.13l0,-0.33a1.2,1.2 0 0 0 -0.21,-0.77a0.75,0.75 0 0 0 -0.62,-0.26a1.18,1.18 0 0 0 -0.45,0.07a1.49,1.49 0 0 0 -0.31,0.16l-0.23,0.16a0.31,0.31 0 0 1 -0.2,0.07a0.2,0.2 0 0 1 -0.13,0a0.43,0.43 0 0 1 -0.09,-0.1l-0.12,-0.27zm2.37,1.76a6.48,6.48 0 0 0 -0.86,0.08a3.22,3.22 0 0 0 -0.57,0.18a0.76,0.76 0 0 0 -0.32,0.25a0.53,0.53 0 0 0 -0.1,0.32a0.84,0.84 0 0 0 0,0.29a0.52,0.52 0 0 0 0.14,0.21a0.51,0.51 0 0 0 0.22,0.11a1.1,1.1 0 0 0 0.27,0a1.29,1.29 0 0 0 0.35,0a1.25,1.25 0 0 0 0.31,-0.12l0.27,-0.19a1.88,1.88 0 0 0 0.25,-0.24l0,-0.89l0.04,0z" class="cls-1"/>
     <path id="svg_19" fill="#282827" d="m234.67,95.28a1,1 0 0 1 -0.76,-0.28a1.15,1.15 0 0 1 -0.26,-0.83l0,-2.65l-0.51,0a0.15,0.15 0 0 1 -0.11,0a0.17,0.17 0 0 1 -0.05,-0.12l0,-0.3l0.69,-0.1l0.17,-1.34a0.23,0.23 0 0 1 0,-0.1a0.15,0.15 0 0 1 0.11,0l0.37,0l0,1.44l1.21,0l0,0.56l-1.21,0l0,2.59a0.49,0.49 0 0 0 0.14,0.4a0.39,0.39 0 0 0 0.32,0.14a0.6,0.6 0 0 0 0.2,0a0.46,0.46 0 0 0 0.14,-0.07l0.1,-0.08a0.13,0.13 0 0 1 0.08,0s0.07,0 0.1,0.07l0.22,0.37a1.7,1.7 0 0 1 -0.46,0.29a1.66,1.66 0 0 1 -0.49,0.01z" class="cls-1"/>
    </g>
    <g id="svg_20">
     <path id="svg_21" fill="#282827" d="m237.37,89.53a0.52,0.52 0 0 1 0,0.21a0.78,0.78 0 0 1 -0.11,0.18a0.52,0.52 0 0 1 -0.17,0.12a0.45,0.45 0 0 1 -0.2,0a0.46,0.46 0 0 1 -0.21,0a0.61,0.61 0 0 1 -0.16,-0.12a0.67,0.67 0 0 1 -0.11,-0.18a0.46,0.46 0 0 1 0,-0.21a0.52,0.52 0 0 1 0,-0.21a0.5,0.5 0 0 1 0.11,-0.17a0.61,0.61 0 0 1 0.16,-0.12a0.46,0.46 0 0 1 0.21,0a0.45,0.45 0 0 1 0.2,0a0.66,0.66 0 0 1 0.17,0.12a0.45,0.45 0 0 1 0.11,0.17a0.65,0.65 0 0 1 0,0.21zm-0.15,1.35l0,4.33l-0.74,0l0,-4.33l0.74,0z" class="cls-1"/>
     <path id="svg_22" fill="#282827" d="m241.91,90.88l-1.7,4.33l-0.65,0l-1.7,-4.33l0.6,0a0.25,0.25 0 0 1 0.15,0.05a0.32,0.32 0 0 1 0.08,0.12l1.06,2.78l0.09,0.31c0,0.1 0,0.2 0.07,0.3c0,-0.1 0.05,-0.2 0.07,-0.3s0.05,-0.2 0.09,-0.31l1.07,-2.78a0.21,0.21 0 0 1 0.08,-0.12a0.22,0.22 0 0 1 0.14,-0.05l0.55,0z" class="cls-1"/>
     <path id="svg_23" fill="#282827" d="m245.76,94.61a1.47,1.47 0 0 1 -0.32,0.29a3,3 0 0 1 -0.4,0.21a3.74,3.74 0 0 1 -0.45,0.12a2.28,2.28 0 0 1 -0.45,0a2,2 0 0 1 -0.8,-0.15a1.71,1.71 0 0 1 -0.62,-0.44a2,2 0 0 1 -0.42,-0.73a3,3 0 0 1 -0.15,-1a3,3 0 0 1 0.13,-0.85a2.25,2.25 0 0 1 0.38,-0.68a2.18,2.18 0 0 1 0.62,-0.46a1.94,1.94 0 0 1 0.82,-0.16a1.73,1.73 0 0 1 0.69,0.13a2,2 0 0 1 0.56,0.38a1.63,1.63 0 0 1 0.36,0.6a2.35,2.35 0 0 1 0.13,0.82a0.45,0.45 0 0 1 0,0.24s-0.07,0.06 -0.14,0.06l-2.78,0a2.53,2.53 0 0 0 0.11,0.72a1.27,1.27 0 0 0 0.68,0.81a1.33,1.33 0 0 0 0.54,0.1a1.63,1.63 0 0 0 0.47,-0.06l0.35,-0.15l0.24,-0.14a0.32,0.32 0 0 1 0.16,-0.06a0.15,0.15 0 0 1 0.14,0.07l0.15,0.33zm-0.58,-2a1.61,1.61 0 0 0 -0.07,-0.49a1.19,1.19 0 0 0 -0.22,-0.38a0.88,0.88 0 0 0 -0.33,-0.24a1,1 0 0 0 -0.44,-0.09a1.09,1.09 0 0 0 -0.84,0.32a1.55,1.55 0 0 0 -0.38,0.88l2.28,0z" class="cls-1"/>
    </g>
   </g>
   <g id="svg_24">
    <path id="svg_25" fill="#282827" d="m200.61,90.81a2.08,2.08 0 0 1 0.83,0.16a1.76,1.76 0 0 1 0.62,0.46a1.9,1.9 0 0 1 0.39,0.7a3,3 0 0 1 0.14,0.92a2.87,2.87 0 0 1 -0.14,0.92a2.23,2.23 0 0 1 -0.39,0.71a1.71,1.71 0 0 1 -0.62,0.44a2.37,2.37 0 0 1 -1.66,0a1.71,1.71 0 0 1 -0.62,-0.44a1.9,1.9 0 0 1 -0.4,-0.71a2.91,2.91 0 0 1 -0.14,-0.92a3,3 0 0 1 0.14,-0.92a1.86,1.86 0 0 1 0.4,-0.7a2,2 0 0 1 0.62,-0.46a2.19,2.19 0 0 1 0.83,-0.16zm0,3.87a1.05,1.05 0 0 0 0.92,-0.43a2,2 0 0 0 0.3,-1.2a2.07,2.07 0 0 0 -0.3,-1.2a1.09,1.09 0 0 0 -0.92,-0.43a1.31,1.31 0 0 0 -0.55,0.11a1,1 0 0 0 -0.38,0.32a1.46,1.46 0 0 0 -0.23,0.52a2.82,2.82 0 0 0 -0.08,0.68a2.07,2.07 0 0 0 0.3,1.2a1.08,1.08 0 0 0 0.94,0.43z" class="cls-1"/>
    <path id="svg_26" fill="#282827" d="m204.13,91.51a2.54,2.54 0 0 1 0.29,-0.28a1.66,1.66 0 0 1 0.32,-0.22a1.2,1.2 0 0 1 0.37,-0.15a1.77,1.77 0 0 1 0.41,0a1.43,1.43 0 0 1 0.6,0.12a1.27,1.27 0 0 1 0.44,0.34a1.37,1.37 0 0 1 0.26,0.51a2.38,2.38 0 0 1 0.09,0.68l0,2.75l-0.73,0l0,-2.8a1.24,1.24 0 0 0 -0.22,-0.77a0.78,0.78 0 0 0 -0.65,-0.27a1.16,1.16 0 0 0 -0.61,0.16a1.94,1.94 0 0 0 -0.52,0.44l0,3.19l-0.74,0l0,-4.33l0.45,0a0.18,0.18 0 0 1 0.19,0.17l0.05,0.46z" class="cls-1"/>
    <path id="svg_27" fill="#282827" d="m207.84,91.5a2.36,2.36 0 0 1 0.75,-0.52a2.26,2.26 0 0 1 0.88,-0.17a1.46,1.46 0 0 1 0.62,0.12a1.41,1.41 0 0 1 0.45,0.34a1.56,1.56 0 0 1 0.28,0.51a2,2 0 0 1 0.1,0.67l0,2.76l-0.33,0a0.24,0.24 0 0 1 -0.16,0a0.21,0.21 0 0 1 -0.09,-0.14l-0.08,-0.41a4,4 0 0 1 -0.32,0.28a1.27,1.27 0 0 1 -0.34,0.2a2,2 0 0 1 -0.37,0.13a1.88,1.88 0 0 1 -0.43,0a1.39,1.39 0 0 1 -0.46,-0.07a1.23,1.23 0 0 1 -0.34,-0.2a1,1 0 0 1 -0.25,-0.35a1.38,1.38 0 0 1 -0.09,-0.52a1.09,1.09 0 0 1 0.13,-0.49a1.3,1.3 0 0 1 0.44,-0.43a2.92,2.92 0 0 1 0.8,-0.3a5.64,5.64 0 0 1 1.2,-0.13l0,-0.33a1.2,1.2 0 0 0 -0.21,-0.77a0.76,0.76 0 0 0 -0.62,-0.26a1.18,1.18 0 0 0 -0.45,0.07a1.49,1.49 0 0 0 -0.31,0.16l-0.24,0.16a0.3,0.3 0 0 1 -0.19,0.07a0.2,0.2 0 0 1 -0.13,0a0.43,0.43 0 0 1 -0.09,-0.1l-0.15,-0.28zm2.36,1.76a6.32,6.32 0 0 0 -0.86,0.08a3.22,3.22 0 0 0 -0.57,0.18a0.8,0.8 0 0 0 -0.33,0.25a0.53,0.53 0 0 0 -0.1,0.32a0.84,0.84 0 0 0 0,0.29a0.54,0.54 0 0 0 0.15,0.21a0.51,0.51 0 0 0 0.22,0.11a1.1,1.1 0 0 0 0.27,0a1.29,1.29 0 0 0 0.35,0a1.66,1.66 0 0 0 0.31,-0.12l0.27,-0.19a1.88,1.88 0 0 0 0.25,-0.24l0,-0.89l0.04,0z" class="cls-1"/>
    <path id="svg_28" fill="#282827" d="m212.71,88.93l0,6.29l-0.71,0l0,-6.29l0.71,0z" class="cls-1"/>
   </g>
   <path id="svg_29" fill="#282827" d="m197.84,89.53a0.52,0.52 0 0 1 0,0.21a0.78,0.78 0 0 1 -0.11,0.18a0.52,0.52 0 0 1 -0.17,0.12a0.52,0.52 0 0 1 -0.4,0a0.61,0.61 0 0 1 -0.16,-0.12a0.67,0.67 0 0 1 -0.11,-0.18a0.46,0.46 0 0 1 0,-0.21a0.52,0.52 0 0 1 0,-0.21a0.5,0.5 0 0 1 0.11,-0.17a0.61,0.61 0 0 1 0.16,-0.12a0.52,0.52 0 0 1 0.4,0a0.66,0.66 0 0 1 0.17,0.12a0.45,0.45 0 0 1 0.11,0.17a0.65,0.65 0 0 1 0,0.21zm-0.15,1.35l0,4.33l-0.69,0l0,-4.33l0.69,0z" class="cls-1"/>
   <g id="svg_30">
    <path id="svg_31" fill="#29b57f" d="m123.73,93.3c0,1.09 0.41,1.87 1.65,1.87a2,2 0 0 0 1.39,-0.54l0.07,0.27c0,0.1 0.07,0.17 0.19,0.17l0.21,0a0.2,0.2 0 0 0 0.2,-0.19l0,-3.73a0.2,0.2 0 0 0 -0.19,-0.2l-0.34,0a0.21,0.21 0 0 0 -0.2,0.21l0,2.75a1.71,1.71 0 0 1 -1.27,0.58c-0.59,0 -1,-0.38 -1,-1.17l0,-2.17a0.2,0.2 0 0 0 -0.19,-0.2l-0.35,0a0.21,0.21 0 0 0 -0.2,0.21l0,2.14l0.03,0z" class="cls-2"/>
    <path id="svg_32" fill-rule="evenodd" fill="#4a79bc" d="m135,92.45c-1.1,0 -1.7,0.58 -1.7,1.37a1.27,1.27 0 0 0 1.31,1.35a1.89,1.89 0 0 0 1.32,-0.53l0.08,0.28c0,0.09 0.06,0.15 0.18,0.15l0.2,0a0.2,0.2 0 0 0 0.2,-0.19l0,-2.29c0,-1.21 -0.26,-1.75 -1.35,-1.75a4,4 0 0 0 -1.48,0.28a0.17,0.17 0 0 0 -0.12,0.23l0.08,0.26a0.14,0.14 0 0 0 0.2,0.1a3.93,3.93 0 0 1 1.28,-0.23c0.61,0 0.71,0.35 0.7,1.12a2.6,2.6 0 0 0 -0.9,-0.15zm-0.28,2.11a0.71,0.71 0 0 1 -0.75,-0.74c0,-0.54 0.43,-0.83 1,-0.83a2,2 0 0 1 0.9,0.16l0,0.85a1.56,1.56 0 0 1 -1.19,0.56l0.04,0z" class="cls-3"/>
    <path id="svg_33" fill="#4a79bc" d="m137.55,93a2.16,2.16 0 0 0 2.19,2.16a1.94,1.94 0 0 0 1.64,-0.87a0.21,0.21 0 0 0 -0.08,-0.29l-0.12,-0.08a0.21,0.21 0 0 0 -0.32,0a1.45,1.45 0 1 1 -1.12,-2.41a1.31,1.31 0 0 1 1,0.43c0.1,0.08 0.15,0.18 0.31,0l0.2,-0.16a0.18,0.18 0 0 0 0,-0.29a1.87,1.87 0 0 0 -1.52,-0.73a2.22,2.22 0 0 0 -2.18,2.24z" class="cls-4"/>
    <path id="svg_34" fill-rule="evenodd" fill="#4a79bc" d="m144.11,92.45c-1.1,0 -1.71,0.58 -1.71,1.37a1.27,1.27 0 0 0 1.32,1.35a1.92,1.92 0 0 0 1.32,-0.53l0.08,0.28c0,0.09 0.06,0.15 0.18,0.15l0.2,0a0.2,0.2 0 0 0 0.2,-0.19l0,-2.29c0,-1.21 -0.26,-1.75 -1.35,-1.75a4,4 0 0 0 -1.48,0.28a0.17,0.17 0 0 0 -0.12,0.23l0.08,0.26a0.14,0.14 0 0 0 0.2,0.1a3.93,3.93 0 0 1 1.28,-0.23c0.61,0 0.71,0.35 0.7,1.12a2.53,2.53 0 0 0 -0.9,-0.15zm-0.28,2.11a0.71,0.71 0 0 1 -0.75,-0.74c0,-0.54 0.42,-0.83 1,-0.83a2,2 0 0 1 0.9,0.16l0,0.85a1.56,1.56 0 0 1 -1.15,0.56z" class="cls-3"/>
    <path id="svg_35" fill-rule="evenodd" fill="#4a79bc" d="m148.75,90.84a2,2 0 0 0 -2.05,2.16a2.07,2.07 0 0 0 2,2.18a2,2 0 0 0 1.31,-0.54l0.06,0.28a0.18,0.18 0 0 0 0.18,0.16l0.22,0a0.2,0.2 0 0 0 0.2,-0.19l0,-5.89a0.21,0.21 0 0 0 -0.2,-0.19l-0.33,0a0.2,0.2 0 0 0 -0.2,0.2l0,2.09a2,2 0 0 0 -1.19,-0.26zm0,3.68a1.37,1.37 0 0 1 -1.3,-1.52a1.34,1.34 0 0 1 1.4,-1.47a2.41,2.41 0 0 1 1,0.25l0,2.07a1.56,1.56 0 0 1 -1.13,0.67l0.03,0z" class="cls-3"/>
    <path id="svg_36" fill-rule="evenodd" fill="#4a79bc" d="m153.72,90.84a2.17,2.17 0 0 0 0,4.34a2.77,2.77 0 0 0 1.57,-0.47c0.16,-0.11 0.12,-0.17 0,-0.28l-0.09,-0.12l-0.09,-0.12c-0.08,-0.1 -0.14,-0.07 -0.26,0l0,0a2.11,2.11 0 0 1 -1.06,0.31a1.46,1.46 0 0 1 -1.43,-1.34l3.07,0a0.19,0.19 0 0 0 0.2,-0.17a2.46,2.46 0 0 0 0,-0.28a1.85,1.85 0 0 0 -1.91,-1.87zm1.19,1.77l-2.54,0a1.3,1.3 0 0 1 1.34,-1.14a1.21,1.21 0 0 1 1.2,1.14z" class="cls-3"/>
    <path id="svg_37" fill="#4a79bc" d="m156.64,94.88a0.22,0.22 0 0 0 0.21,0.19l0.33,0a0.2,0.2 0 0 0 0.2,-0.2l0,-2.76a1.67,1.67 0 0 1 1.22,-0.58c0.66,0 1,0.38 1,1.17l0,2.18a0.21,0.21 0 0 0 0.2,0.19l0.34,0a0.2,0.2 0 0 0 0.21,-0.2l0,-2.17a3.61,3.61 0 0 0 -0.05,-0.59a1.93,1.93 0 0 1 1.3,-0.57c0.61,0 1,0.39 1,1.17l0,2.18a0.19,0.19 0 0 0 0.19,0.19l0.35,0a0.2,0.2 0 0 0 0.2,-0.2l0,-2.17c0,-1.07 -0.41,-1.86 -1.65,-1.86a2.62,2.62 0 0 0 -1.6,0.68a1.52,1.52 0 0 0 -1.36,-0.68a2,2 0 0 0 -1.39,0.55l-0.1,-0.32a0.16,0.16 0 0 0 -0.17,-0.13l-0.2,0a0.22,0.22 0 0 0 -0.21,0.2l0,3.73l-0.02,0z" class="cls-4"/>
    <path id="svg_38" fill="#4a79bc" d="m166.32,95.06l-0.87,2.12a0.17,0.17 0 0 0 0.17,0.26l0.38,0a0.23,0.23 0 0 0 0.19,-0.12l2.81,-6.13c0.07,-0.13 0,-0.25 -0.16,-0.25l-0.41,0a0.21,0.21 0 0 0 -0.18,0.12l-1.49,3.15l-1.59,-3.15a0.22,0.22 0 0 0 -0.18,-0.12l-0.48,0c-0.16,0 -0.22,0.1 -0.16,0.24l1.97,3.88z" class="cls-4"/>
    <path id="svg_39" fill="#29b57f" d="m128.44,94.88a0.19,0.19 0 0 0 0.19,0.19l0.37,0a0.2,0.2 0 0 0 0.2,-0.2l0,-2.76a2.16,2.16 0 0 1 1.38,-0.58c0.6,0 1,0.38 1,1.17l0,2.18a0.19,0.19 0 0 0 0.19,0.19l0.36,0a0.2,0.2 0 0 0 0.2,-0.2l0,-2.17c0,-1.07 -0.42,-1.86 -1.66,-1.86a2.42,2.42 0 0 0 -1.49,0.55l-0.1,-0.32a0.15,0.15 0 0 0 -0.17,-0.13l-0.2,0a0.21,0.21 0 0 0 -0.2,0.2l0,3.74l-0.07,0z" class="cls-2"/>
   </g>
  </g>
  <g id="svg_40">
   <path fill="#fff" d="m254.82,34.31a10.17,10.17 0 0 0 -7.67,-3.59l0,0l-0.63,0l-178.27,11.66l-0.06,0c-8.72,0.86 -13.7,6.15 -14.42,15.29l-0.08,1.06l-0.5,0a3.67,3.67 0 0 0 -0.75,0.07a3.35,3.35 0 0 0 -0.72,0.17l0,-3.76c1.86,-1.2 2.57,-4.27 3.68,-9.7c0.14,-0.71 0.29,-1.42 0.44,-2.14a51.47,51.47 0 0 1 5.32,-8.56c3.37,-4.7 6.85,-9.56 6.49,-15.28l-0.23,-0.84c-3.8,-7.44 -8.89,-12.19 -15.53,-14.53a37.29,37.29 0 0 0 -5.24,-1.4c-0.59,-0.12 -1.11,-0.24 -1.54,-0.35l-0.15,0a65.49,65.49 0 0 0 -11.83,-1.35a35.07,35.07 0 0 0 -5,0.34a25,25 0 0 0 -6.28,2.23c-2.35,1.07 -4.78,2.17 -6.91,2.37l-0.52,0.1a12.94,12.94 0 0 0 -7.49,5.46l-0.26,0.37l-0.21,0.37a15.72,15.72 0 0 0 -1.15,10.19l0.05,0.17c0.58,1.83 1.26,3.62 1.92,5.33a46.12,46.12 0 0 1 3,10.28l0.27,0.76a20.18,20.18 0 0 1 1.31,3.68c0.85,3 1.92,6.64 4.79,9.57l0,4.35s-10.58,5.14 -13.65,7.43c-1.56,1.16 -3.61,4 0.14,6.36c2.89,1.83 12.06,6.63 12,6.9a10.82,10.82 0 0 0 1.86,7.45a10.09,10.09 0 0 0 7.83,3.23a12.57,12.57 0 0 0 8.17,-2.88a9.53,9.53 0 0 0 1.29,-1.44a8.23,8.23 0 0 0 1.29,1.44a12.51,12.51 0 0 0 8.15,2.88a10.08,10.08 0 0 0 7.81,-3.22a8.83,8.83 0 0 0 1.74,-7.49l-0.11,-0.62c0.06,0 1.64,-0.78 1.64,-0.78s0,0 0,0.13c0.18,2 0.5,5.64 5.89,6.1l0.12,0l185.76,5l0.28,0a10.58,10.58 0 0 0 7.82,-3.51a12,12 0 0 0 3.15,-8.14l0,-33.08a12.17,12.17 0 0 0 -3.01,-8.08z" class="cls-5" id="base"/>
   <path fill="url(#linear-gradient)" fill-rule="evenodd" d="m68.4,44.52l178.25,-11.64c5,-0.32 9.06,4.28 9.06,9.51l0,33.07c0,5.23 -4.08,9.65 -9.06,9.51l-185.75,-4.97c-3.82,-0.33 -3.79,-2.57 -4,-4.75c13.14,-2.38 5.72,-18.2 -1,-17.38c0.74,-9.52 6.23,-12.7 12.48,-13.32l0.02,-0.03z" class="cls-6" id="brown"/>
   <g id="face">
    <g id="svg_41">
     <path id="svg_42" fill="#5b4538" d="m56.19,61.86l0,0a14.36,14.36 0 0 1 5.47,3.08a1,1 0 0 1 0.46,0.77c0,0.47 -0.35,0.93 -1.07,1.37a45.86,45.86 0 0 0 -3.74,2.79a37.35,37.35 0 0 1 -3.71,2.67a1.21,1.21 0 0 1 -0.54,0.14a1,1 0 0 1 -0.71,-0.28a0.88,0.88 0 0 1 -0.06,-1.27a4,4 0 0 1 1.53,-1.2a13.22,13.22 0 0 0 2,-1.35c1,-0.76 1.6,-1.27 2,-1.5c0.79,-0.4 1.2,-0.68 1.2,-0.85a0.23,0.23 0 0 0 0,-0.11a4,4 0 0 0 -2.16,-1.72c-0.89,-0.25 -1.8,-0.52 -2.71,-0.8a4.91,4.91 0 0 1 -2.38,-1.39a0.3,0.3 0 0 1 0,-0.19a1.12,1.12 0 0 1 0.39,-0.73a1.06,1.06 0 0 1 0.73,-0.39a1.65,1.65 0 0 1 0.44,0a4.33,4.33 0 0 1 1.55,0.38l1.45,0.63m-42.75,-0.91a1.59,1.59 0 0 1 1,0.33a1,1 0 0 1 0.39,0.77a0.78,0.78 0 0 1 -0.24,0.57a10.45,10.45 0 0 1 -3.71,2.11a7.35,7.35 0 0 0 -3.5,2.4a35.94,35.94 0 0 0 4,2l4.14,1.82a0.81,0.81 0 0 1 0.51,0.79a1.29,1.29 0 0 1 -0.53,1.21a2.09,2.09 0 0 1 -1.35,0.48a1.43,1.43 0 0 1 -0.58,-0.12a8.14,8.14 0 0 0 -0.9,-0.76q-3.6,-2 -7.7,-3.74c-0.27,-0.11 -0.55,-0.22 -0.82,-0.31a1,1 0 0 1 -0.6,-0.7a3,3 0 0 1 1,-2.19a20,20 0 0 1 4.15,-2.32a18.18,18.18 0 0 0 4.16,-2.34l0.58,0z" class="cls-7"/>
     <path id="svg_43" fill="#5b4538" d="m30.72,60.92a5.72,5.72 0 0 0 -1.26,-1.39a2.29,2.29 0 0 0 -1.35,-0.41a1.13,1.13 0 0 0 -0.47,0.09l-3,1a1.79,1.79 0 0 1 -0.59,0.08a1.53,1.53 0 0 1 -1,-0.28a4.28,4.28 0 0 1 -0.91,-1.11l-0.83,0.56a5.77,5.77 0 0 0 1.34,1.54a2.44,2.44 0 0 0 1.41,0.37a2.78,2.78 0 0 0 0.75,-0.11l2.77,-1a1.63,1.63 0 0 1 0.59,-0.11a1.39,1.39 0 0 1 0.86,0.23a4.4,4.4 0 0 1 0.9,1l0.79,-0.44" class="cls-7"/>
     <path id="svg_44" fill="#5b4538" fill-rule="evenodd" d="m51.16,77.63c1.52,9.1 -9.6,10 -14.17,5.89c-3.16,-2.82 -2.27,-6.75 2.26,-6.5c4,0.21 6.33,5.35 11.91,0.61" class="cls-8"/>
     <path id="svg_45" fill="#5b4538" fill-rule="evenodd" d="m17.37,77.63c-1.52,9.1 9.6,10 14.17,5.89c3.16,-2.82 2.27,-6.75 -2.26,-6.5c-4,0.21 -6.33,5.35 -11.91,0.61" class="cls-8"/>
     <path id="svg_46" fill="#5b4538" d="m28.3,64.43a3.23,3.23 0 0 0 -1.88,-0.53a3.08,3.08 0 0 0 -2.19,0.8a2.75,2.75 0 0 0 -0.76,2.55a4.54,4.54 0 0 0 1,2.37a2.49,2.49 0 0 0 2,1a3.1,3.1 0 0 0 1.47,-0.4c0.9,-0.54 1.34,-1.56 1.34,-3.09a3.22,3.22 0 0 0 -0.98,-2.7zm-1.92,3.62a1,1 0 1 1 1,-1a1,1 0 0 1 -1,1z" class="cls-7"/>
     <path id="svg_47" fill="#5b4538" d="m35,76.24a2.2,2.2 0 0 0 0.81,-0.15a3.17,3.17 0 0 0 0.7,-0.38a4.9,4.9 0 0 0 0.57,-0.54a4,4 0 0 0 0.44,-0.6a4.36,4.36 0 0 0 0.32,-0.59a2.69,2.69 0 0 0 0.17,-0.46l0,-0.09a0.41,0.41 0 0 1 -0.05,-0.09s0,0 0,0a4.36,4.36 0 0 1 -0.96,1.05a2.83,2.83 0 0 1 -1,0.61a3.46,3.46 0 0 1 -1.17,0.19a3.24,3.24 0 0 1 -1,-0.14a2.56,2.56 0 0 1 -0.77,-0.4a3.82,3.82 0 0 1 -0.63,-0.64a5.07,5.07 0 0 1 -0.5,-0.83l0,0a0.22,0.22 0 0 0 -0.05,0.08s0,0.06 0,0.08a6.15,6.15 0 0 0 0.52,1.1a4,4 0 0 0 0.7,0.91a3.07,3.07 0 0 0 0.86,0.63a2.81,2.81 0 0 0 1,0.22" class="cls-7"/>
     <path id="svg_48" fill="#5b4538" d="m43.82,64.37a3.23,3.23 0 0 0 -1.88,-0.54a3.08,3.08 0 0 0 -2.19,0.81a2.75,2.75 0 0 0 -0.75,2.55a4.44,4.44 0 0 0 1,2.37a2.5,2.5 0 0 0 2,1a3.07,3.07 0 0 0 1.47,-0.4a3.29,3.29 0 0 0 1.35,-3.09c-0.05,-1.35 -0.37,-2.26 -1,-2.7zm-2.2,3.79a1,1 0 1 1 1,-1a1,1 0 0 1 -1,1z" class="cls-7"/>
    </g>
    <g id="Cap">
     <g id="svg_49">
      <path id="svg_50" fill="url(#linear-gradient-2)" d="m50.39,53.52c1.56,-0.68 2.35,-5.92 3.4,-10.8c3.78,-8.65 12.23,-15 11.72,-23c-6.93,-13.62 -16.63,-14.1 -20.78,-15.18c-5.39,-1 -10.77,-1.73 -16.14,-1c-3.82,0.57 -8.78,4.25 -13.36,4.56a11.1,11.1 0 0 0 -6.67,5a13.6,13.6 0 0 0 -1,8.89c1.67,5.33 4.25,10.17 5,16c1.77,3.11 1.89,9 5.92,13c12.38,-5.87 22.46,-1.32 31.91,2.53z" class="cls-9"/>
      <path id="svg_51" fill="#c8bca8" d="m50.24,53.58l-1.16,-0.48c-9.27,-3.78 -18.86,-7.7 -30.68,-2.1l-0.07,0l0,0c-2.63,-2.59 -3.6,-5.92 -4.45,-8.88a20.1,20.1 0 0 0 -1.54,-4.12l0,0a48.47,48.47 0 0 0 -3.17,-10.75c-0.64,-1.69 -1.32,-3.45 -1.87,-5.25a13.76,13.76 0 0 1 1,-9l0.28,-0.4a10.94,10.94 0 0 1 6.42,-4.6c2.52,-0.18 5.13,-1.36 7.64,-2.5a23,23 0 0 1 5.78,-2.1c5.11,-0.73 10.15,-0.15 16.15,1l1.64,0.37c4.57,1 13.07,2.76 19.22,14.82l0,0c0.31,5 -2.8,9.36 -6.11,14a51.22,51.22 0 0 0 -5.62,9.13c-0.16,0.76 -0.32,1.56 -0.48,2.34c-0.87,4.25 -1.62,7.92 -3,8.52l0.02,0zm-19.81,-5.58c6.72,0 12.79,2.48 18.74,4.91l1.07,0.44c1.23,-0.61 2,-4.37 2.82,-8.35c0.16,-0.78 0.32,-1.58 0.49,-2.37a51.64,51.64 0 0 1 5.65,-9.18c3.28,-4.58 6.37,-8.9 6.07,-13.82c-6.12,-11.94 -14.27,-13.63 -19.08,-14.63c-0.63,-0.13 -1.16,-0.24 -1.65,-0.37c-6,-1.1 -11,-1.68 -16.08,-1a24,24 0 0 0 -5.68,2.05c-2.53,1.15 -5.14,2.32 -7.69,2.51a10.74,10.74 0 0 0 -6.32,4.62l-0.27,0.38a13.54,13.54 0 0 0 -1,8.8c0.55,1.76 1.22,3.51 1.88,5.2a48.4,48.4 0 0 1 3.16,10.75a20.24,20.24 0 0 1 1.5,4.14c0.84,2.9 1.8,6.19 4.35,8.73a27.68,27.68 0 0 1 12.04,-2.81z" class="cls-10"/>
     </g>
     <g id="svg_52">
      <path id="svg_53" fill="url(#linear-gradient-3)" fill-rule="evenodd" d="m18.87,54.42c4.44,-2.36 15.58,-8.19 30.48,2a22.89,22.89 0 0 0 0.14,-7.2c-0.43,-5.68 -22.68,-12.63 -30.75,-0.12l0.13,5.28" class="cls-11"/>
      <path id="svg_54" fill="#d8273c" d="m49.39,56.54l-0.06,0c-6.33,-4.42 -12.81,-6.35 -19.14,-5.78a29.38,29.38 0 0 0 -11.3,3.7l-0.06,0l0,-0.08l-0.13,-5.29l0,0a15,15 0 0 1 9.83,-6.52a25.89,25.89 0 0 1 11.7,0.37c5.3,1.35 9.12,3.94 9.3,6.29a23,23 0 0 1 -0.14,7.21l0,0.1zm-17,-6c5.61,0 11.3,2 16.94,5.82a23,23 0 0 0 0.12,-7.12c-0.18,-2.28 -4.06,-4.9 -9.24,-6.22a25.85,25.85 0 0 0 -11.66,-0.36a14.91,14.91 0 0 0 -9.77,6.46l0.13,5.19a29.21,29.21 0 0 1 11.27,-3.68c0.74,-0.03 1.47,-0.06 2.2,-0.06l0.01,-0.03z" class="cls-12"/>
     </g>
     <g id="svg_55">
      <g data-name="1" id="_1">
       <path id="svg_56" fill="url(#linear-gradient-4)" fill-rule="evenodd" d="m12.6,12.29c-0.68,3.46 2.4,14.38 1.4,20.11c-0.52,-3 -2.44,-9 -2.36,-12.33c-0.92,-2 -1.85,-4.45 -2.87,-5.39s2.11,-5.83 3.88,-2.39" class="cls-13"/>
       <path id="svg_57" fill="#a99675" d="m19.59,47.45l0,0c-4,-4.72 -5.7,-12.85 -7.1,-19.7c-1.11,-5.44 -2.06,-10.08 -3.89,-11.54l0,0a2.28,2.28 0 0 1 -0.42,-1a3.51,3.51 0 0 1 0.41,-2a4.37,4.37 0 0 1 1.41,-1.71a3,3 0 0 1 1.29,-0.5l0,0.09a2.94,2.94 0 0 0 -1.28,0.5a11.61,11.61 0 0 0 -1.08,1.61c-0.9,1.8 1,1.71 1.71,2.69c1.85,1.49 2,6.38 3.12,11.84c1.4,6.84 1.86,14.95 5.87,19.65l0,0s0,0 0,0l-0.06,0.07" class="cls-14"/>
      </g>
      <g data-name="2" id="_2">
       <path id="svg_58" fill="url(#linear-gradient-5)" fill-rule="evenodd" d="m19.44,10.88c-0.69,3.45 1.07,11.39 0,17.13c-0.52,-3 -2.44,-9 -2.36,-12.32c-0.93,-2 -2,-4.32 -2.69,-5.51s2.47,-2.51 5,0.7" class="cls-15"/>
       <path id="svg_59" fill="#a99675" d="m18.1,9.66a2.26,2.26 0 0 0 -2,-0.46a1.72,1.72 0 0 0 -0.77,0.28a0.87,0.87 0 0 0 -0.38,0.59c0,0.36 -0.28,0.42 0,1.09l0,0c2.24,3 4,8.07 4.42,13.42c0.6,6.79 -0.19,14.31 4.31,19.64l-0.07,0.06c-4.52,-5.36 -5.19,-12.89 -5.78,-19.69c-0.48,-5.34 -0.91,-10.24 -3.13,-13.25l0,0a2.09,2.09 0 0 1 -0.53,-1.54a1,1 0 0 1 0.41,-0.65a1.68,1.68 0 0 1 0.83,-0.3a4.09,4.09 0 0 1 2.69,0.74l-0.06,0.07" class="cls-14"/>
      </g>
      <g data-name="3" id="_3">
       <path id="svg_60" fill="url(#linear-gradient-6)" d="m30.44,4.8c2.08,3.47 -1.74,19.09 -2.44,28.9c-0.06,0.83 -7.38,-32.39 2.42,-28.9" class="cls-16"/>
       <path id="svg_61" fill="#b5a584" d="m29.57,42.36a93,93 0 0 1 -5.31,-25.36a27.26,27.26 0 0 1 0.68,-8.54c0.65,-2.22 1.79,-3.68 3.56,-3.94a4.85,4.85 0 0 1 1.93,0.14l0,0.09a4.52,4.52 0 0 0 -1.92,0.06c-1.48,0.34 -1.3,1.26 -2.27,3.35a22.23,22.23 0 0 0 -0.72,8.27c1.26,8.24 2.81,19.48 4.15,25.87l-0.07,0" class="cls-17"/>
      </g>
      <path fill="#cabb9c" d="m36.47,41.83c-0.1,-0.67 -0.19,-1.35 -0.29,-2c-1.54,-11.16 -3.43,-24.76 3.19,-34.53l0.08,0c-2.71,7.23 -3.08,21 -3.4,25.44c-0.14,1.92 0.08,6 0.23,9c0.09,0.69 0.2,1.37 0.29,2.05l-0.1,0" class="cls-18" data-name="4" id="_4"/>
      <path fill="url(#linear-gradient-7)" d="m43.65,43.26c0.23,-5.76 0.84,-12.5 1.4,-18.34c1.39,-7.36 5.13,-10.84 6.11,-18.28l0,-0.09a50.63,50.63 0 0 0 -6.6,18.39a88.13,88.13 0 0 0 -0.83,18.32l-0.1,0" class="cls-19" data-name="5" id="_5"/>
      <g data-name="6" id="_6">
       <path id="svg_62" fill="url(#linear-gradient-8)" d="m61,15.38c-3,9.24 -6.54,18.27 -10.14,27.41c0.1,-12.1 6.58,-26.66 10.14,-27.41" class="cls-20"/>
       <path id="svg_63" fill="#a99675" d="m49.1,46.86c1.58,-1.64 1.69,-4.16 1.83,-7.09a23.62,23.62 0 0 1 1.58,-8.77c0,-0.12 0.09,-0.31 0.16,-0.57c0.88,-3.05 4.39,-15.34 8.48,-15.12l0,0.09c-3.21,-0.12 -7.3,12 -8.27,15.07c-0.07,0.25 -0.09,0.41 -0.13,0.54l0,0c-1.15,3 -1.22,6 -1.6,8.74c-0.13,2.94 -0.38,5.48 -2,7.14l-0.06,0" class="cls-14"/>
      </g>
     </g>
    </g>
   </g>
   <g id="name">
    <path id="svg_64" fill="#fff" d="m89.28,70.51a1.41,1.41 0 0 1 -0.38,0.77a11.11,11.11 0 0 1 -8.94,4a11.92,11.92 0 0 1 -9.23,-3.87a13.45,13.45 0 0 1 -3.46,-9.46a13.72,13.72 0 0 1 3.38,-9.38a11.42,11.42 0 0 1 9,-4c3.94,0 7,1.2 9.28,3.63a1.12,1.12 0 0 1 0.36,0.7a10.56,10.56 0 0 1 -1.29,2.5a14.52,14.52 0 0 1 -1.59,2.49a0.53,0.53 0 0 1 -0.41,0.11a5.23,5.23 0 0 1 -0.92,-0.73a8.94,8.94 0 0 0 -1.9,-1.27a6.53,6.53 0 0 0 -3,-0.73a5.23,5.23 0 0 0 -4.29,2a7.08,7.08 0 0 0 -1.48,4.59a7.28,7.28 0 0 0 1.48,4.64a5.2,5.2 0 0 0 4.29,2a6.81,6.81 0 0 0 3,-0.69a9.87,9.87 0 0 0 1.91,-1.27a3.85,3.85 0 0 1 0.89,-0.69a0.51,0.51 0 0 1 0.36,0.2c0.19,0.23 0.72,1 1.59,2.27a13,13 0 0 1 1.33,2.21l0.02,-0.02z" class="cls-5"/>
    <path id="svg_65" fill="#fff" d="m115.46,61.9a13.28,13.28 0 0 1 -3.64,9.51a13.21,13.21 0 0 1 -18.75,0a13.17,13.17 0 0 1 -3.66,-9.48a13.28,13.28 0 0 1 3.66,-9.51a13.05,13.05 0 0 1 18.71,0a13.3,13.3 0 0 1 3.68,9.51l0,-0.03zm-6.92,0a6.81,6.81 0 0 0 -1.67,-4.64a5.63,5.63 0 0 0 -4.44,-2a5.54,5.54 0 0 0 -4.36,2.08a7.16,7.16 0 0 0 -0.07,9.2a5.92,5.92 0 0 0 8.86,-0.11a6.73,6.73 0 0 0 1.73,-4.57l-0.05,0.04z" class="cls-5"/>
    <path id="svg_66" fill="#fff" d="m140.85,61.74a13.56,13.56 0 0 1 -3.46,9.26a11.27,11.27 0 0 1 -8.56,3.69c-0.71,0 -2.65,0 -5.83,0c-0.6,0 -1.49,0 -2.69,-0.06s-2.1,-0.06 -2.7,-0.06c-0.35,0 -0.53,-0.15 -0.53,-0.42c0,-1.33 0.06,-3.34 0.15,-6s0.15,-4.67 0.15,-6s0,-3.48 -0.15,-6.26s-0.15,-4.86 -0.15,-6.26c0,-0.25 0.18,-0.4 0.53,-0.45c0.87,-0.09 2.28,-0.14 4.26,-0.14c3.75,0 6.18,0.06 7.29,0.16a13.92,13.92 0 0 1 6.78,2.19a11.11,11.11 0 0 1 3.63,4.61a13.51,13.51 0 0 1 1.28,5.74zm-7,0a7,7 0 0 0 -1.84,-5a6.38,6.38 0 0 0 -4.94,-2c-1.87,0 -2.81,0.25 -2.81,0.74c0,0.72 0,1.8 0,3.23s0,2.51 0,3.23s0,1.76 0,3.16s0,2.49 0,3.2c0,0.53 1,0.79 2.91,0.79a6.29,6.29 0 0 0 5,-2.09a7.81,7.81 0 0 0 1.7,-5.22l-0.02,-0.04z" class="cls-5"/>
    <path id="svg_67" fill="#fff" d="m161.22,69a23,23 0 0 1 -0.31,2.87a11.13,11.13 0 0 1 -0.58,2.71a0.69,0.69 0 0 1 -0.61,0.34a3.9,3.9 0 0 1 -0.54,-0.06c-0.89,-0.12 -3.48,-0.18 -7.79,-0.18l-4.19,0l-4.15,0c-0.4,0 -0.61,-0.18 -0.61,-0.53q0,-2 0.23,-6.12t0.23,-6.12q0,-2.07 -0.22,-7.73c0,-1 -0.1,-2.41 -0.21,-4.34l0,-0.26c0,-0.28 0.13,-0.41 0.46,-0.41c0.91,0 2.26,0 4.06,0.07s3.16,0.07 4.07,0.07s2.23,0 4,-0.07s3.13,-0.07 4,-0.07c0.62,0 1,0.23 1.09,0.71c0.07,0.28 0.16,1.11 0.29,2.54s0.19,2.27 0.19,2.57s-0.12,0.38 -0.36,0.38l-0.39,0c-3.24,-0.26 -6.15,-0.4 -8.73,-0.4c-0.65,0 -1,0.15 -1.18,0.46a5.67,5.67 0 0 0 -0.09,1.39a2.57,2.57 0 0 0 0.36,1.64a1.55,1.55 0 0 0 1.18,0.34l0.71,0c0.35,0 0.64,0 0.87,0c1.54,0 3.09,0 4.66,-0.13l1,-0.09c0.42,0 0.75,-0.07 1,-0.07s0.44,0.14 0.44,0.41a26.9,26.9 0 0 0 -0.33,2.79a28.34,28.34 0 0 0 -0.14,2.91c0,0.24 -0.18,0.36 -0.53,0.36l-1.65,-0.18c-0.69,-0.07 -2.28,-0.1 -4.75,-0.1l-1.93,0c-0.5,0 -0.8,0.12 -0.88,0.36c0,0.06 0,0.45 0,1.13a5.44,5.44 0 0 0 0.18,1.79c0.21,0.46 1,0.73 2.34,0.82l2.67,0c0.65,0 1.61,-0.07 2.89,-0.18s2.23,-0.17 2.85,-0.17c0.26,0 0.4,0.21 0.4,0.65l0,-0.1z" class="cls-5"/>
    <path id="svg_68" fill="#f8f3de" d="m230.27,69.42a22.63,22.63 0 0 1 -0.3,2.77a10.39,10.39 0 0 1 -0.57,2.6a0.66,0.66 0 0 1 -0.58,0.33l-0.54,-0.05c-0.85,-0.11 -3.37,-0.17 -7.54,-0.17l-4.06,0l-4,0c-0.39,0 -0.58,-0.17 -0.58,-0.51c0,-1.31 0.07,-3.26 0.22,-5.89s0.22,-4.58 0.22,-5.89s-0.07,-3.8 -0.21,-7.44c0,-0.93 -0.1,-2.32 -0.19,-4.18l0,-0.25c0,-0.27 0.12,-0.4 0.44,-0.4c0.88,0 2.19,0 3.94,0.07s3.07,0.07 3.95,0.07s2.15,0 3.89,-0.07s3,-0.07 3.89,-0.07c0.61,0 1,0.23 1.06,0.69c0.05,0.27 0.14,1.07 0.27,2.44s0.2,2.17 0.2,2.47a0.33,0.33 0 0 1 -0.36,0.37l-0.37,0c-3.15,-0.25 -6,-0.38 -8.47,-0.38c-0.63,0 -1,0.15 -1.15,0.44a5.31,5.31 0 0 0 -0.09,1.34a2.5,2.5 0 0 0 0.35,1.58a1.53,1.53 0 0 0 1.15,0.33l0.69,0c0.34,0 0.62,0 0.84,0c1.48,0 3,0 4.52,-0.12l1,-0.09c0.4,0 0.71,-0.07 1,-0.07s0.43,0.13 0.43,0.4a23.94,23.94 0 0 0 -0.32,2.67a26.44,26.44 0 0 0 -0.14,2.81c0,0.23 -0.17,0.35 -0.52,0.35l-1.59,-0.18c-0.67,-0.07 -2.21,-0.1 -4.61,-0.1l-1.88,0c-0.48,0 -0.76,0.11 -0.84,0.34c0,0.06 0,0.42 0,1.09a5.31,5.31 0 0 0 0.17,1.71c0.2,0.45 1,0.71 2.27,0.79l2.58,0c0.62,0 1.55,-0.05 2.79,-0.17s2.16,-0.17 2.77,-0.17c0.27,0 0.41,0.23 0.41,0.64l-0.14,-0.1z" class="cls-21"/>
    <path id="svg_69" fill="#f8f3de" d="m249.78,56c0,0.12 -0.13,0.19 -0.36,0.19c-0.88,0 -2.22,-0.08 -4,-0.22s-3.15,-0.23 -4.05,-0.23a8.49,8.49 0 0 0 -2,0.12c-0.44,0.2 -0.66,0.75 -0.66,1.68c0,1.11 0.28,1.74 0.85,1.89a4.74,4.74 0 0 0 1.08,0.09c0.81,0 2,0 3.65,-0.13s2.84,-0.13 3.66,-0.13c0.39,0 0.58,1 0.58,3.07a13.52,13.52 0 0 1 -0.19,3.12a0.46,0.46 0 0 1 -0.47,0.31a6.68,6.68 0 0 0 -1.12,-0.12c-1.26,-0.12 -3.18,-0.17 -5.74,-0.17c-0.83,0 -1.29,0 -1.4,0c-0.6,0.09 -0.9,0.34 -0.9,0.76c0,1.65 0.07,3.56 0.21,5.71c0.12,2 0.17,2.82 0.17,2.61c0,0.3 -0.37,0.47 -1.1,0.52a15.47,15.47 0 0 0 -1.58,0a25.37,25.37 0 0 1 -4.26,-0.22c-0.35,-0.08 -0.52,-0.26 -0.52,-0.55c0,-1.3 0,-3.23 0.13,-5.84s0.13,-4.53 0.13,-5.84c0,-1.54 -0.07,-3.48 -0.21,-5.8c-0.21,-3.61 -0.32,-5.54 -0.34,-5.81l0,-0.22c0,-0.29 0.17,-0.44 0.53,-0.44c0.88,0 2.2,0 4,0.05s3.08,0 4,0s2.36,-0.07 4.26,-0.21s3.3,-0.21 4.25,-0.21c0.59,0 0.92,0.24 1,0.71s0,1.25 0.07,2.26c0,0.26 0.1,0.76 0.23,1.5a8.37,8.37 0 0 1 0.2,1.5l-0.1,0.05z" class="cls-21"/>
    <path id="svg_70" fill="#f8f3de" d="m162.93,56.67a15,15 0 0 0 0.84,10.62a14.2,14.2 0 0 0 7.33,7.71a12.21,12.21 0 0 0 10.37,-0.29a11.69,11.69 0 0 0 6.71,-7.71a1.79,1.79 0 0 0 0.07,-0.45a23.55,23.55 0 0 0 -2.07,-1.42c-1.46,-0.93 -2.09,-1.31 -2.36,-1.46c-0.08,0.14 -0.18,0.36 -0.32,0.67a10.47,10.47 0 0 1 -1.4,2.31a8.07,8.07 0 0 1 -2.91,2.27a6.18,6.18 0 0 1 -5.75,-0.12a9.55,9.55 0 0 1 -4.44,-10.14a6.4,6.4 0 0 1 3.72,-4.43a7.73,7.73 0 0 1 3.6,-0.69a11,11 0 0 1 2.7,0.53l0.78,0.23a24.41,24.41 0 0 0 0.37,-2.92a14.89,14.89 0 0 0 0.15,-2.88a1,1 0 0 0 -0.34,-0.2a10.75,10.75 0 0 0 -4.26,-0.87a14.29,14.29 0 0 0 -6,1.45a12,12 0 0 0 -6.79,7.79z" class="cls-21"/>
    <path id="svg_71" fill="#f8f3de" d="m209.82,68.62c-0.12,-2.55 -0.19,-4.45 -0.19,-5.72s0.06,-3.38 0.17,-6.1s0.17,-4.73 0.17,-6.07c0,-0.28 -0.17,-0.41 -0.52,-0.41s-0.87,0 -1.58,0s-1.22,0.05 -1.56,0.05s-0.89,0 -1.59,-0.05s-1.23,0 -1.57,0s-0.44,0.18 -0.44,0.53c0,0.86 0,2.13 0.13,3.84s0.12,3 0.12,3.8c0,0.4 -0.14,0.64 -0.43,0.72a35.41,35.41 0 0 1 -4.39,0.14a33,33 0 0 1 -4.53,-0.14q-0.33,-0.12 -0.33,-0.72c0,-0.88 0.06,-2.19 0.19,-3.93s0.19,-3.06 0.19,-3.94c0,-0.21 -0.1,-0.31 -0.3,-0.31c-0.38,0 -0.94,0 -1.71,0s-1.33,0 -1.71,0s-0.92,0 -1.66,0s-1.29,0 -1.65,0s-0.37,0.12 -0.37,0.38c0,1.35 0.06,3.39 0.18,6.1s0.17,4.76 0.17,6.11c0,0.28 0,0.59 0,0.92l0.27,0.18c2.39,1.55 2.46,1.71 2.56,1.93a2.11,2.11 0 0 1 0,1.37a12.79,12.79 0 0 1 -3.16,5.63c0,0.53 0,1 0,1.39a0.53,0.53 0 0 0 0.51,0.55a25.35,25.35 0 0 0 3,0.11a27.63,27.63 0 0 0 3.32,-0.11a0.54,0.54 0 0 0 0.48,-0.62c0,-0.9 0,-2.27 -0.08,-4.08s-0.09,-3.18 -0.09,-4.09c0,-0.46 0.13,-0.72 0.38,-0.78a34.85,34.85 0 0 1 4.32,-0.14a33.86,33.86 0 0 1 4.28,0.14c0.27,0.07 0.4,0.33 0.4,0.78c0,0.93 -0.05,2.31 -0.13,4.16s-0.14,3.24 -0.14,4.15c0,0.25 0.17,0.41 0.49,0.48a25.7,25.7 0 0 0 3.27,0.11c1.31,0 2.33,0 3,-0.11a1.28,1.28 0 0 0 0.5,-0.09c0.1,0 0.16,-0.21 0.16,-0.46q0.05,-1.89 -0.13,-5.7z" class="cls-21"/>
   </g>
  </g>
 </g>
</svg>